<mxfile host="65bd71144e">
    <diagram id="lDiFIGL9q6QaWhsGoV7C" name="General">
        <mxGraphModel dx="1054" dy="609" grid="0" gridSize="10" guides="1" tooltips="1" connect="1" arrows="1" fold="1" page="1" pageScale="1" pageWidth="1169" pageHeight="827" math="0" shadow="0">
            <root>
                <mxCell id="dNm2ccqmBa7K8h2q_YeM-0"/>
                <mxCell id="dNm2ccqmBa7K8h2q_YeM-1" style="locked=1;" parent="dNm2ccqmBa7K8h2q_YeM-0"/>
                <mxCell id="wkJuRZE2MlwUfy_HyfjM-1" value="salida" style="whiteSpace=wrap;html=1;fontSize=26;verticalAlign=top;fillColor=rgb(42, 42, 42);strokeColor=#F0F0F0;fontColor=#FFFFFF;arcSize=12;" parent="dNm2ccqmBa7K8h2q_YeM-1" vertex="1">
                    <mxGeometry x="794" y="347" width="120" height="60" as="geometry"/>
                </mxCell>
                <mxCell id="wkJuRZE2MlwUfy_HyfjM-2" value="" style="edgeStyle=none;html=1;labelBackgroundColor=none;fontSize=17;fontColor=#00FF00;exitX=0.998;exitY=0.549;exitDx=0;exitDy=0;exitPerimeter=0;" parent="dNm2ccqmBa7K8h2q_YeM-1" source="dNm2ccqmBa7K8h2q_YeM-2" target="wkJuRZE2MlwUfy_HyfjM-1" edge="1">
                    <mxGeometry relative="1" as="geometry"/>
                </mxCell>
                <mxCell id="wkJuRZE2MlwUfy_HyfjM-4" style="edgeStyle=none;html=1;labelBackgroundColor=none;fontSize=17;fontColor=#00FF00;" parent="dNm2ccqmBa7K8h2q_YeM-1" source="wkJuRZE2MlwUfy_HyfjM-3" edge="1">
                    <mxGeometry relative="1" as="geometry">
                        <mxPoint x="407.34625244140625" y="370" as="targetPoint"/>
                    </mxGeometry>
                </mxCell>
                <mxCell id="wkJuRZE2MlwUfy_HyfjM-3" value="Entrada" style="whiteSpace=wrap;html=1;fontSize=26;verticalAlign=top;fillColor=rgb(42, 42, 42);strokeColor=#F0F0F0;fontColor=#FFFFFF;arcSize=12;" parent="dNm2ccqmBa7K8h2q_YeM-1" vertex="1">
                    <mxGeometry x="165" y="340" width="120" height="60" as="geometry"/>
                </mxCell>
                <mxCell id="dNm2ccqmBa7K8h2q_YeM-2" value="" style="verticalLabelPosition=bottom;verticalAlign=top;html=1;shape=card;whiteSpace=wrap;size=20;arcSize=12;fontSize=26;fontColor=#FFFFFF;strokeColor=#F0F0F0;" parent="dNm2ccqmBa7K8h2q_YeM-1" vertex="1">
                    <mxGeometry x="393" y="44" width="310" height="605" as="geometry"/>
                </mxCell>
                <mxCell id="dNm2ccqmBa7K8h2q_YeM-4" value="&lt;font style=&quot;font-size: 20px&quot;&gt;Declaro Variables&lt;/font&gt;" style="rounded=1;whiteSpace=wrap;html=1;fontSize=26;fontColor=#FFFFFF;strokeColor=#F0F0F0;" parent="dNm2ccqmBa7K8h2q_YeM-1" vertex="1">
                    <mxGeometry x="455.84000000000003" y="93" width="152.16" height="53.03" as="geometry"/>
                </mxCell>
                <mxCell id="dNm2ccqmBa7K8h2q_YeM-5" value="&lt;font style=&quot;font-size: 20px&quot;&gt;Ingreso dato&lt;/font&gt;" style="rounded=1;whiteSpace=wrap;html=1;fontSize=26;fontColor=#FFFFFF;strokeColor=#F0F0F0;" parent="dNm2ccqmBa7K8h2q_YeM-1" vertex="1">
                    <mxGeometry x="459.84375" y="174.43621049722668" width="143.03125" height="47.12007560056059" as="geometry"/>
                </mxCell>
                <mxCell id="dNm2ccqmBa7K8h2q_YeM-6" value="" style="edgeStyle=none;html=1;labelBackgroundColor=none;fontSize=26;fontColor=#FFFFFF;" parent="dNm2ccqmBa7K8h2q_YeM-1" source="dNm2ccqmBa7K8h2q_YeM-4" target="dNm2ccqmBa7K8h2q_YeM-5" edge="1">
                    <mxGeometry relative="1" as="geometry"/>
                </mxCell>
                <mxCell id="pNvwt_0r-Zkxwws_K309-0" style="edgeStyle=none;html=1;labelBackgroundColor=none;fontSize=20;fontColor=#FFFFFF;" parent="dNm2ccqmBa7K8h2q_YeM-1" source="dNm2ccqmBa7K8h2q_YeM-7" edge="1">
                    <mxGeometry relative="1" as="geometry">
                        <mxPoint x="598" y="212" as="targetPoint"/>
                        <Array as="points">
                            <mxPoint x="646" y="284"/>
                            <mxPoint x="646" y="212"/>
                        </Array>
                    </mxGeometry>
                </mxCell>
                <mxCell id="dNm2ccqmBa7K8h2q_YeM-7" value="&lt;font style=&quot;font-size: 20px&quot;&gt;Valido&lt;/font&gt;" style="rounded=1;whiteSpace=wrap;html=1;fontSize=26;fontColor=#FFFFFF;strokeColor=#F0F0F0;" parent="dNm2ccqmBa7K8h2q_YeM-1" vertex="1">
                    <mxGeometry x="459.84375" y="260.16029194054596" width="143.03125" height="47.12007560056059" as="geometry"/>
                </mxCell>
                <mxCell id="dNm2ccqmBa7K8h2q_YeM-8" value="" style="edgeStyle=none;html=1;labelBackgroundColor=none;fontSize=26;fontColor=#FFFFFF;" parent="dNm2ccqmBa7K8h2q_YeM-1" source="dNm2ccqmBa7K8h2q_YeM-5" target="dNm2ccqmBa7K8h2q_YeM-7" edge="1">
                    <mxGeometry relative="1" as="geometry"/>
                </mxCell>
                <mxCell id="dNm2ccqmBa7K8h2q_YeM-10" value="&lt;font style=&quot;font-size: 20px&quot;&gt;proceso dato&lt;/font&gt;" style="rounded=1;whiteSpace=wrap;html=1;fontSize=26;fontColor=#FFFFFF;strokeColor=#F0F0F0;" parent="dNm2ccqmBa7K8h2q_YeM-1" vertex="1">
                    <mxGeometry x="459.84375" y="344.243414954304" width="143.03125" height="47.12007560056059" as="geometry"/>
                </mxCell>
                <mxCell id="dNm2ccqmBa7K8h2q_YeM-11" value="" style="edgeStyle=none;html=1;labelBackgroundColor=none;fontSize=26;fontColor=#FFFFFF;" parent="dNm2ccqmBa7K8h2q_YeM-1" source="dNm2ccqmBa7K8h2q_YeM-7" target="dNm2ccqmBa7K8h2q_YeM-10" edge="1">
                    <mxGeometry relative="1" as="geometry"/>
                </mxCell>
                <mxCell id="dNm2ccqmBa7K8h2q_YeM-14" style="edgeStyle=none;html=1;entryX=1;entryY=0.424;entryDx=0;entryDy=0;entryPerimeter=0;labelBackgroundColor=none;fontSize=26;fontColor=#FFFFFF;" parent="dNm2ccqmBa7K8h2q_YeM-1" source="dNm2ccqmBa7K8h2q_YeM-12" target="dNm2ccqmBa7K8h2q_YeM-5" edge="1">
                    <mxGeometry relative="1" as="geometry">
                        <Array as="points">
                            <mxPoint x="688" y="445.48036951501155"/>
                            <mxPoint x="688" y="194.0300230946882"/>
                        </Array>
                    </mxGeometry>
                </mxCell>
                <mxCell id="dNm2ccqmBa7K8h2q_YeM-12" value="&lt;font style=&quot;font-size: 20px&quot;&gt;Sigo?&lt;/font&gt;" style="rounded=1;whiteSpace=wrap;html=1;fontSize=26;fontColor=#FFFFFF;strokeColor=#F0F0F0;" parent="dNm2ccqmBa7K8h2q_YeM-1" vertex="1">
                    <mxGeometry x="459.84375" y="421.8035241112494" width="143.03125" height="47.12007560056059" as="geometry"/>
                </mxCell>
                <mxCell id="dNm2ccqmBa7K8h2q_YeM-13" value="" style="edgeStyle=none;html=1;labelBackgroundColor=none;fontSize=26;fontColor=#FFFFFF;" parent="dNm2ccqmBa7K8h2q_YeM-1" source="dNm2ccqmBa7K8h2q_YeM-10" target="dNm2ccqmBa7K8h2q_YeM-12" edge="1">
                    <mxGeometry relative="1" as="geometry"/>
                </mxCell>
                <mxCell id="dNm2ccqmBa7K8h2q_YeM-16" value="&lt;font style=&quot;font-size: 20px&quot;&gt;Proceso&lt;/font&gt;" style="rounded=1;whiteSpace=wrap;html=1;fontSize=26;fontColor=#FFFFFF;strokeColor=#F0F0F0;" parent="dNm2ccqmBa7K8h2q_YeM-1" vertex="1">
                    <mxGeometry x="459.84375" y="494.002016640019" width="143.03125" height="47.12007560056059" as="geometry"/>
                </mxCell>
                <mxCell id="dNm2ccqmBa7K8h2q_YeM-17" value="" style="edgeStyle=none;html=1;labelBackgroundColor=none;fontSize=26;fontColor=#FFFFFF;" parent="dNm2ccqmBa7K8h2q_YeM-1" source="dNm2ccqmBa7K8h2q_YeM-12" target="dNm2ccqmBa7K8h2q_YeM-16" edge="1">
                    <mxGeometry relative="1" as="geometry"/>
                </mxCell>
                <mxCell id="dNm2ccqmBa7K8h2q_YeM-18" value="&lt;font style=&quot;font-size: 20px&quot;&gt;Salida Datos&amp;nbsp;&lt;br&gt;Procesados&lt;/font&gt;" style="rounded=1;whiteSpace=wrap;html=1;fontSize=26;fontColor=#FFFFFF;strokeColor=#F0F0F0;" parent="dNm2ccqmBa7K8h2q_YeM-1" vertex="1">
                    <mxGeometry x="459.84000000000003" y="571" width="144.16" height="63.73" as="geometry"/>
                </mxCell>
                <mxCell id="dNm2ccqmBa7K8h2q_YeM-19" value="" style="edgeStyle=none;html=1;labelBackgroundColor=none;fontSize=26;fontColor=#FFFFFF;" parent="dNm2ccqmBa7K8h2q_YeM-1" source="dNm2ccqmBa7K8h2q_YeM-16" target="dNm2ccqmBa7K8h2q_YeM-18" edge="1">
                    <mxGeometry relative="1" as="geometry"/>
                </mxCell>
                <mxCell id="wkJuRZE2MlwUfy_HyfjM-5" value="Proceso o&amp;nbsp; Funcion" style="text;html=1;align=center;verticalAlign=middle;resizable=0;points=[];autosize=1;strokeColor=none;fillColor=none;fontSize=17;fontColor=#00FF00;" parent="dNm2ccqmBa7K8h2q_YeM-1" vertex="1">
                    <mxGeometry x="451" y="54" width="157" height="24" as="geometry"/>
                </mxCell>
            </root>
        </mxGraphModel>
    </diagram>
    <diagram id="oYUc8hF17GYCPg2sDmzt" name="Entrada/procesos">
        <mxGraphModel dx="1318" dy="1161" grid="0" gridSize="10" guides="1" tooltips="1" connect="1" arrows="1" fold="1" page="0" pageScale="1" pageWidth="1169" pageHeight="827" math="0" shadow="0">
            <root>
                <mxCell id="v9ek1b2nu12ALb-qIQrT-0"/>
                <mxCell id="v9ek1b2nu12ALb-qIQrT-1" style="locked=1;" parent="v9ek1b2nu12ALb-qIQrT-0"/>
                <mxCell id="v9ek1b2nu12ALb-qIQrT-29" value="" style="rounded=1;whiteSpace=wrap;html=1;absoluteArcSize=1;arcSize=14;strokeWidth=2;fontSize=22;sketch=1;glass=0;shadow=1;fillColor=#1ba1e2;fontColor=#ffffff;strokeColor=#006EAF;" parent="v9ek1b2nu12ALb-qIQrT-1" vertex="1">
                    <mxGeometry x="638" y="28" width="463" height="1217" as="geometry"/>
                </mxCell>
                <mxCell id="v9ek1b2nu12ALb-qIQrT-21" value="" style="rounded=1;whiteSpace=wrap;html=1;absoluteArcSize=1;arcSize=14;strokeWidth=2;fontSize=22;fontColor=#FFFF66;" parent="v9ek1b2nu12ALb-qIQrT-1" vertex="1">
                    <mxGeometry x="64" y="29" width="528" height="1214" as="geometry"/>
                </mxCell>
                <mxCell id="v9ek1b2nu12ALb-qIQrT-4" style="edgeStyle=none;html=1;labelBackgroundColor=none;fontSize=20;fontColor=#FFFF66;" parent="v9ek1b2nu12ALb-qIQrT-1" source="v9ek1b2nu12ALb-qIQrT-2" target="v9ek1b2nu12ALb-qIQrT-3" edge="1">
                    <mxGeometry relative="1" as="geometry"/>
                </mxCell>
                <mxCell id="v9ek1b2nu12ALb-qIQrT-2" value="&amp;nbsp;Primer&lt;br style=&quot;font-size: 20px&quot;&gt;dato" style="rounded=1;whiteSpace=wrap;html=1;absoluteArcSize=1;arcSize=14;strokeWidth=2;fontSize=20;fontColor=#FFFF66;" parent="v9ek1b2nu12ALb-qIQrT-1" vertex="1">
                    <mxGeometry x="228" y="157" width="172" height="61" as="geometry"/>
                </mxCell>
                <mxCell id="v9ek1b2nu12ALb-qIQrT-5" style="edgeStyle=none;html=1;entryX=1;entryY=0.5;entryDx=0;entryDy=0;labelBackgroundColor=none;fontSize=20;fontColor=#FFFF66;" parent="v9ek1b2nu12ALb-qIQrT-1" source="v9ek1b2nu12ALb-qIQrT-3" target="v9ek1b2nu12ALb-qIQrT-2" edge="1">
                    <mxGeometry relative="1" as="geometry">
                        <Array as="points">
                            <mxPoint x="494" y="312"/>
                            <mxPoint x="494" y="188"/>
                        </Array>
                    </mxGeometry>
                </mxCell>
                <mxCell id="v9ek1b2nu12ALb-qIQrT-10" style="edgeStyle=none;html=1;entryX=0.5;entryY=0;entryDx=0;entryDy=0;labelBackgroundColor=none;fontSize=20;fontColor=#FFFF66;" parent="v9ek1b2nu12ALb-qIQrT-1" source="v9ek1b2nu12ALb-qIQrT-3" target="v9ek1b2nu12ALb-qIQrT-7" edge="1">
                    <mxGeometry relative="1" as="geometry"/>
                </mxCell>
                <mxCell id="v9ek1b2nu12ALb-qIQrT-3" value="valida" style="strokeWidth=2;html=1;shape=mxgraph.flowchart.decision;whiteSpace=wrap;fontSize=20;fontColor=#FFFF66;" parent="v9ek1b2nu12ALb-qIQrT-1" vertex="1">
                    <mxGeometry x="264" y="259" width="100" height="100" as="geometry"/>
                </mxCell>
                <mxCell id="v9ek1b2nu12ALb-qIQrT-6" style="edgeStyle=none;html=1;labelBackgroundColor=none;fontSize=20;fontColor=#FFFF66;" parent="v9ek1b2nu12ALb-qIQrT-1" source="v9ek1b2nu12ALb-qIQrT-7" target="v9ek1b2nu12ALb-qIQrT-9" edge="1">
                    <mxGeometry relative="1" as="geometry"/>
                </mxCell>
                <mxCell id="v9ek1b2nu12ALb-qIQrT-7" value="&amp;nbsp;Segundo&lt;br style=&quot;font-size: 20px;&quot;&gt;dato" style="rounded=1;whiteSpace=wrap;html=1;absoluteArcSize=1;arcSize=14;strokeWidth=2;fontSize=20;fontColor=#FFFF66;" parent="v9ek1b2nu12ALb-qIQrT-1" vertex="1">
                    <mxGeometry x="228" y="439" width="169" height="66" as="geometry"/>
                </mxCell>
                <mxCell id="v9ek1b2nu12ALb-qIQrT-8" style="edgeStyle=none;html=1;entryX=1;entryY=0.5;entryDx=0;entryDy=0;labelBackgroundColor=none;fontSize=20;fontColor=#FFFF66;" parent="v9ek1b2nu12ALb-qIQrT-1" source="v9ek1b2nu12ALb-qIQrT-9" target="v9ek1b2nu12ALb-qIQrT-7" edge="1">
                    <mxGeometry relative="1" as="geometry">
                        <Array as="points">
                            <mxPoint x="486" y="599"/>
                            <mxPoint x="486" y="472"/>
                        </Array>
                    </mxGeometry>
                </mxCell>
                <mxCell id="v9ek1b2nu12ALb-qIQrT-15" style="edgeStyle=none;html=1;entryX=0.5;entryY=0;entryDx=0;entryDy=0;labelBackgroundColor=none;fontSize=20;fontColor=#FFFF66;" parent="v9ek1b2nu12ALb-qIQrT-1" source="v9ek1b2nu12ALb-qIQrT-9" target="v9ek1b2nu12ALb-qIQrT-12" edge="1">
                    <mxGeometry relative="1" as="geometry"/>
                </mxCell>
                <mxCell id="v9ek1b2nu12ALb-qIQrT-9" value="valida" style="strokeWidth=2;html=1;shape=mxgraph.flowchart.decision;whiteSpace=wrap;fontSize=20;fontColor=#FFFF66;" parent="v9ek1b2nu12ALb-qIQrT-1" vertex="1">
                    <mxGeometry x="264" y="546" width="100" height="100" as="geometry"/>
                </mxCell>
                <mxCell id="v9ek1b2nu12ALb-qIQrT-11" style="edgeStyle=none;html=1;labelBackgroundColor=none;fontSize=20;fontColor=#FFFF66;" parent="v9ek1b2nu12ALb-qIQrT-1" source="v9ek1b2nu12ALb-qIQrT-12" target="v9ek1b2nu12ALb-qIQrT-14" edge="1">
                    <mxGeometry relative="1" as="geometry"/>
                </mxCell>
                <mxCell id="v9ek1b2nu12ALb-qIQrT-12" value="&amp;nbsp;Ultimo&lt;br style=&quot;font-size: 20px;&quot;&gt;dato" style="rounded=1;whiteSpace=wrap;html=1;absoluteArcSize=1;arcSize=14;strokeWidth=2;fontSize=20;fontColor=#FFFF66;" parent="v9ek1b2nu12ALb-qIQrT-1" vertex="1">
                    <mxGeometry x="228" y="693" width="169" height="66" as="geometry"/>
                </mxCell>
                <mxCell id="v9ek1b2nu12ALb-qIQrT-13" style="edgeStyle=none;html=1;entryX=1;entryY=0.5;entryDx=0;entryDy=0;labelBackgroundColor=none;fontSize=20;fontColor=#FFFF66;" parent="v9ek1b2nu12ALb-qIQrT-1" source="v9ek1b2nu12ALb-qIQrT-14" target="v9ek1b2nu12ALb-qIQrT-12" edge="1">
                    <mxGeometry relative="1" as="geometry">
                        <Array as="points">
                            <mxPoint x="486" y="853"/>
                            <mxPoint x="486" y="726"/>
                        </Array>
                    </mxGeometry>
                </mxCell>
                <mxCell id="v9ek1b2nu12ALb-qIQrT-18" value="" style="edgeStyle=none;html=1;labelBackgroundColor=none;fontSize=20;fontColor=#FFFF66;" parent="v9ek1b2nu12ALb-qIQrT-1" source="v9ek1b2nu12ALb-qIQrT-14" target="v9ek1b2nu12ALb-qIQrT-17" edge="1">
                    <mxGeometry relative="1" as="geometry"/>
                </mxCell>
                <mxCell id="v9ek1b2nu12ALb-qIQrT-14" value="valida" style="strokeWidth=2;html=1;shape=mxgraph.flowchart.decision;whiteSpace=wrap;fontSize=20;fontColor=#FFFF66;" parent="v9ek1b2nu12ALb-qIQrT-1" vertex="1">
                    <mxGeometry x="264" y="800" width="100" height="100" as="geometry"/>
                </mxCell>
                <mxCell id="v9ek1b2nu12ALb-qIQrT-20" style="edgeStyle=none;html=1;entryX=0.5;entryY=0;entryDx=0;entryDy=0;labelBackgroundColor=none;fontSize=20;fontColor=#FFFF66;exitX=0.5;exitY=1;exitDx=0;exitDy=0;exitPerimeter=0;" parent="v9ek1b2nu12ALb-qIQrT-1" source="v9ek1b2nu12ALb-qIQrT-17" target="v9ek1b2nu12ALb-qIQrT-2" edge="1">
                    <mxGeometry relative="1" as="geometry">
                        <mxPoint x="291" y="1125" as="sourcePoint"/>
                        <Array as="points">
                            <mxPoint x="314" y="1137"/>
                            <mxPoint x="117" y="1137"/>
                            <mxPoint x="112" y="542"/>
                            <mxPoint x="112" y="107"/>
                            <mxPoint x="314" y="107"/>
                        </Array>
                    </mxGeometry>
                </mxCell>
                <mxCell id="v9ek1b2nu12ALb-qIQrT-23" style="edgeStyle=none;html=1;labelBackgroundColor=none;fontSize=20;fontColor=#FFFF66;exitX=1;exitY=0.5;exitDx=0;exitDy=0;exitPerimeter=0;" parent="v9ek1b2nu12ALb-qIQrT-1" source="v9ek1b2nu12ALb-qIQrT-17" edge="1">
                    <mxGeometry relative="1" as="geometry">
                        <mxPoint x="482" y="1366" as="targetPoint"/>
                        <Array as="points">
                            <mxPoint x="482" y="1030"/>
                        </Array>
                    </mxGeometry>
                </mxCell>
                <mxCell id="v9ek1b2nu12ALb-qIQrT-17" value="Ingresar otra tanda" style="strokeWidth=2;html=1;shape=mxgraph.flowchart.decision;whiteSpace=wrap;fontSize=20;fontColor=#FFFF66;" parent="v9ek1b2nu12ALb-qIQrT-1" vertex="1">
                    <mxGeometry x="238" y="957" width="152" height="146" as="geometry"/>
                </mxCell>
                <mxCell id="v9ek1b2nu12ALb-qIQrT-22" value="&lt;font style=&quot;font-size: 30px&quot;&gt;Ciclo entrada de datos&lt;/font&gt;" style="text;html=1;align=center;verticalAlign=middle;resizable=0;points=[];autosize=1;strokeColor=none;fillColor=none;fontSize=20;fontColor=#FFFF66;" parent="v9ek1b2nu12ALb-qIQrT-1" vertex="1">
                    <mxGeometry x="155" y="44" width="310" height="31" as="geometry"/>
                </mxCell>
                <mxCell id="v9ek1b2nu12ALb-qIQrT-26" style="edgeStyle=none;html=1;labelBackgroundColor=none;fontSize=20;fontColor=#FFFF66;" parent="v9ek1b2nu12ALb-qIQrT-1" source="v9ek1b2nu12ALb-qIQrT-25" edge="1">
                    <mxGeometry relative="1" as="geometry">
                        <mxPoint x="313.6822204589844" y="389.0207824707031" as="targetPoint"/>
                    </mxGeometry>
                </mxCell>
                <mxCell id="v9ek1b2nu12ALb-qIQrT-25" value="Validar Menor/Mayor&lt;br style=&quot;font-size: 20px;&quot;&gt;" style="strokeWidth=2;html=1;shape=mxgraph.flowchart.start_1;whiteSpace=wrap;fontSize=20;fontColor=#FFFF66;" parent="v9ek1b2nu12ALb-qIQrT-1" vertex="1">
                    <mxGeometry x="771.5" y="359" width="221.5" height="64" as="geometry"/>
                </mxCell>
                <mxCell id="v9ek1b2nu12ALb-qIQrT-28" style="edgeStyle=none;html=1;labelBackgroundColor=none;fontSize=20;fontColor=#FFFF66;" parent="v9ek1b2nu12ALb-qIQrT-1" edge="1">
                    <mxGeometry relative="1" as="geometry">
                        <mxPoint x="312" y="661" as="targetPoint"/>
                        <mxPoint x="814" y="656" as="sourcePoint"/>
                    </mxGeometry>
                </mxCell>
                <mxCell id="v9ek1b2nu12ALb-qIQrT-27" value="Cuento&amp;nbsp;" style="strokeWidth=2;html=1;shape=mxgraph.flowchart.start_1;whiteSpace=wrap;fontSize=20;fontColor=#FFFF66;" parent="v9ek1b2nu12ALb-qIQrT-1" vertex="1">
                    <mxGeometry x="785" y="631" width="188" height="60" as="geometry"/>
                </mxCell>
                <mxCell id="0pMKZKm56SpVenwVgNaB-1" style="edgeStyle=none;html=1;labelBackgroundColor=none;fontSize=20;fontColor=#FFFF66;" parent="v9ek1b2nu12ALb-qIQrT-1" source="0pMKZKm56SpVenwVgNaB-0" edge="1">
                    <mxGeometry relative="1" as="geometry">
                        <mxPoint x="313.6822204589844" y="934.0208435058594" as="targetPoint"/>
                    </mxGeometry>
                </mxCell>
                <mxCell id="0pMKZKm56SpVenwVgNaB-0" value="Acumulo" style="strokeWidth=2;html=1;shape=mxgraph.flowchart.start_1;whiteSpace=wrap;fontSize=20;fontColor=#FFFF66;" parent="v9ek1b2nu12ALb-qIQrT-1" vertex="1">
                    <mxGeometry x="788" y="900" width="188" height="60" as="geometry"/>
                </mxCell>
                <mxCell id="0pMKZKm56SpVenwVgNaB-2" value="&lt;font style=&quot;font-size: 30px&quot;&gt;Proceso de datos inicial&lt;/font&gt;" style="text;html=1;align=center;verticalAlign=middle;resizable=0;points=[];autosize=1;strokeColor=none;fillColor=none;fontSize=20;fontColor=#FFFF66;" parent="v9ek1b2nu12ALb-qIQrT-1" vertex="1">
                    <mxGeometry x="704" y="47" width="327" height="31" as="geometry"/>
                </mxCell>
                <mxCell id="MCX45lnqEGnoBTNkoIHl-1" value="" style="edgeStyle=none;html=1;fontSize=17;" parent="v9ek1b2nu12ALb-qIQrT-1" source="0pMKZKm56SpVenwVgNaB-3" target="MCX45lnqEGnoBTNkoIHl-0" edge="1">
                    <mxGeometry relative="1" as="geometry"/>
                </mxCell>
                <mxCell id="0pMKZKm56SpVenwVgNaB-3" value="&lt;b&gt;&lt;font style=&quot;font-size: 31px&quot; color=&quot;#ffff66&quot;&gt;Proceso de datos final&lt;/font&gt;&lt;/b&gt;" style="rounded=1;whiteSpace=wrap;html=1;absoluteArcSize=1;arcSize=14;strokeWidth=2;fontSize=20;fontColor=#ffffff;shadow=1;fillColor=#1ba1e2;strokeColor=#006EAF;sketch=1;" parent="v9ek1b2nu12ALb-qIQrT-1" vertex="1">
                    <mxGeometry x="139" y="1381" width="864" height="126" as="geometry"/>
                </mxCell>
                <mxCell id="MCX45lnqEGnoBTNkoIHl-0" value="&lt;b&gt;&lt;font style=&quot;font-size: 31px&quot;&gt;Retorno de los datos procesados&lt;/font&gt;&lt;/b&gt;" style="rounded=1;whiteSpace=wrap;html=1;absoluteArcSize=1;arcSize=14;strokeWidth=2;fontSize=20;fontColor=#ffffff;fillColor=#60a917;strokeColor=#2D7600;shadow=1;sketch=1;" parent="v9ek1b2nu12ALb-qIQrT-1" vertex="1">
                    <mxGeometry x="139" y="1561" width="868" height="122" as="geometry"/>
                </mxCell>
                <mxCell id="MCX45lnqEGnoBTNkoIHl-2" value="&lt;b&gt;&lt;font style=&quot;font-size: 31px&quot;&gt;Declaracion de variables ( Estructuras de datos )&lt;/font&gt;&lt;/b&gt;" style="rounded=1;whiteSpace=wrap;html=1;absoluteArcSize=1;arcSize=14;strokeWidth=2;fontSize=22;fontColor=#ffffff;fillColor=#d80073;strokeColor=#A50040;shadow=1;sketch=1;" parent="v9ek1b2nu12ALb-qIQrT-1" vertex="1">
                    <mxGeometry x="178" y="-191" width="844" height="108" as="geometry"/>
                </mxCell>
            </root>
        </mxGraphModel>
    </diagram>
    <diagram id="mGqcnNzCDpJObna9hFam" name="Ciclo_Entrada">
        <mxGraphModel dx="1054" dy="1409" grid="0" gridSize="10" guides="1" tooltips="1" connect="1" arrows="1" fold="1" page="0" pageScale="1" pageWidth="1169" pageHeight="827" math="0" shadow="0">
            <root>
                <mxCell id="0"/>
                <mxCell id="1" style="locked=1;" parent="0"/>
                <mxCell id="2" value="&lt;h1&gt;Ciclo Entrada Datos Usuario&lt;/h1&gt;&lt;p&gt;&lt;span style=&quot;white-space: pre&quot;&gt;&#9;&lt;/span&gt;¿Cantidad de datos a ingresar?&lt;br&gt;&lt;/p&gt;&lt;p&gt;1-&amp;nbsp; Conosco la cantidad de datos&amp;nbsp;&lt;/p&gt;&lt;p&gt;&lt;span style=&quot;white-space: pre&quot;&gt;&#9;&lt;/span&gt;Uso un &quot;for&quot;&amp;nbsp;&lt;br&gt;&lt;/p&gt;&lt;p&gt;2-&amp;nbsp; No conosco la cantidad de Datos&lt;/p&gt;&lt;p&gt;&lt;span style=&quot;white-space: pre&quot;&gt;&#9;&lt;/span&gt;Variable de control con un&amp;nbsp; while / Do while&lt;br&gt;&lt;/p&gt;&lt;p&gt;&lt;span style=&quot;white-space: pre&quot;&gt;&#9;&lt;/span&gt;&lt;br&gt;&lt;/p&gt;" style="text;html=1;strokeColor=none;fillColor=none;spacing=5;spacingTop=-20;whiteSpace=wrap;overflow=hidden;rounded=0;" parent="1" vertex="1">
                    <mxGeometry x="142" y="-199" width="390" height="190" as="geometry"/>
                </mxCell>
                <mxCell id="19" value="&lt;div style=&quot;color: rgb(212 , 212 , 212) ; background-color: rgb(30 , 30 , 30) ; font-family: &amp;#34;consolas&amp;#34; , &amp;#34;courier new&amp;#34; , monospace ; font-size: 16px ; line-height: 32px&quot;&gt;&lt;div&gt;&lt;span style=&quot;color: #c586c0&quot;&gt;do&lt;/span&gt;&lt;/div&gt;&lt;div&gt;{&lt;/div&gt;&lt;div&gt;&lt;div&gt;&lt;span style=&quot;color: rgb(106 , 153 , 85)&quot;&gt;&amp;nbsp;// pido y valido los datos del usuario&lt;/span&gt;&lt;/div&gt;&lt;div&gt;&amp;nbsp; .&amp;nbsp; &amp;nbsp;Primer proceso de datos&lt;/div&gt;&lt;/div&gt;&lt;div&gt;&amp;nbsp; ..&lt;/div&gt;&lt;div&gt;&amp;nbsp; ...&lt;/div&gt;&lt;div&gt;&amp;nbsp; &lt;span style=&quot;color: #9cdcfe&quot;&gt;variableControl&lt;/span&gt; = &lt;span style=&quot;color: #dcdcaa&quot;&gt;prompt&lt;/span&gt;(&lt;span style=&quot;color: #ce9178&quot;&gt;&quot;salir[s]&quot;&lt;/span&gt;);&lt;/div&gt;&lt;div&gt;}&lt;span style=&quot;color: #c586c0&quot;&gt;while&lt;/span&gt;( &lt;span style=&quot;color: #9cdcfe&quot;&gt;variableControl&lt;/span&gt; != &lt;span style=&quot;color: #ce9178&quot;&gt;'s'&lt;/span&gt;);&lt;/div&gt;&lt;/div&gt;" style="text;html=1;align=left;verticalAlign=middle;resizable=0;points=[];autosize=1;strokeColor=none;fillColor=none;" parent="1" vertex="1">
                    <mxGeometry x="592" y="16" width="353" height="260" as="geometry"/>
                </mxCell>
                <mxCell id="15" value="&lt;div style=&quot;color: rgb(212 , 212 , 212) ; background-color: rgb(30 , 30 , 30) ; font-family: &amp;#34;consolas&amp;#34; , &amp;#34;courier new&amp;#34; , monospace ; font-size: 16px ; line-height: 32px&quot;&gt;&lt;div&gt;&lt;span style=&quot;color: #569cd6&quot;&gt;var&lt;/span&gt; &lt;span style=&quot;color: #9cdcfe&quot;&gt;variableControl&lt;/span&gt; = &lt;span style=&quot;color: #ce9178&quot;&gt;'n'&lt;/span&gt;;&lt;/div&gt;&lt;div&gt;&lt;span style=&quot;color: #c586c0&quot;&gt;while&lt;/span&gt;( &lt;span style=&quot;color: #9cdcfe&quot;&gt;variableControl&lt;/span&gt; != &lt;span style=&quot;color: #ce9178&quot;&gt;'s'&lt;/span&gt;)&lt;/div&gt;&lt;div&gt;{&lt;/div&gt;&lt;div&gt;&amp;nbsp;&amp;nbsp;&lt;span style=&quot;color: rgb(106 , 153 , 85)&quot;&gt;// pido y valido los datos del usuario&lt;/span&gt;&lt;/div&gt;&lt;div&gt;&amp;nbsp; .&amp;nbsp; Primer proceso de datos&lt;/div&gt;&lt;div&gt;&amp;nbsp; ..&lt;/div&gt;&lt;div&gt;&amp;nbsp; ...&lt;/div&gt;&lt;div&gt;&amp;nbsp; &lt;span style=&quot;color: #9cdcfe&quot;&gt;variableControl&lt;/span&gt; = &lt;span style=&quot;color: #dcdcaa&quot;&gt;prompt&lt;/span&gt;(&lt;span style=&quot;color: #ce9178&quot;&gt;&quot;salir[s-n]&quot;&lt;/span&gt;);&lt;/div&gt;&lt;div&gt;}&lt;/div&gt;&lt;/div&gt;" style="text;html=1;align=left;verticalAlign=middle;resizable=0;points=[];autosize=1;strokeColor=none;fillColor=none;" parent="1" vertex="1">
                    <mxGeometry x="142" width="371" height="292" as="geometry"/>
                </mxCell>
                <mxCell id="tAmyZCT-YvDs7sy_ooSd-27" style="edgeStyle=none;html=1;entryX=-0.001;entryY=0.107;entryDx=0;entryDy=0;entryPerimeter=0;labelBackgroundColor=none;fontSize=20;fontColor=#FFFF66;exitX=0.999;exitY=0.353;exitDx=0;exitDy=0;exitPerimeter=0;" parent="1" source="24" target="tAmyZCT-YvDs7sy_ooSd-26" edge="1">
                    <mxGeometry relative="1" as="geometry"/>
                </mxCell>
                <mxCell id="tAmyZCT-YvDs7sy_ooSd-28" style="edgeStyle=none;html=1;entryX=-0.003;entryY=0.444;entryDx=0;entryDy=0;entryPerimeter=0;labelBackgroundColor=none;fontSize=20;fontColor=#FFFF66;exitX=0.999;exitY=0.525;exitDx=0;exitDy=0;exitPerimeter=0;" parent="1" source="24" target="tAmyZCT-YvDs7sy_ooSd-26" edge="1">
                    <mxGeometry relative="1" as="geometry"/>
                </mxCell>
                <mxCell id="tAmyZCT-YvDs7sy_ooSd-29" style="edgeStyle=none;html=1;entryX=0.001;entryY=0.732;entryDx=0;entryDy=0;entryPerimeter=0;labelBackgroundColor=none;fontSize=20;fontColor=#FFFF66;exitX=1.003;exitY=0.668;exitDx=0;exitDy=0;exitPerimeter=0;" parent="1" source="24" target="tAmyZCT-YvDs7sy_ooSd-26" edge="1">
                    <mxGeometry relative="1" as="geometry"/>
                </mxCell>
                <mxCell id="tAmyZCT-YvDs7sy_ooSd-30" style="edgeStyle=none;html=1;entryX=0.001;entryY=0.954;entryDx=0;entryDy=0;entryPerimeter=0;labelBackgroundColor=none;fontSize=20;fontColor=#FFFF66;exitX=1.001;exitY=0.879;exitDx=0;exitDy=0;exitPerimeter=0;" parent="1" source="24" target="tAmyZCT-YvDs7sy_ooSd-26" edge="1">
                    <mxGeometry relative="1" as="geometry"/>
                </mxCell>
                <mxCell id="tAmyZCT-YvDs7sy_ooSd-32" value="" style="edgeStyle=none;html=1;labelBackgroundColor=none;fontSize=20;fontColor=#FFFF66;" parent="1" source="24" target="tAmyZCT-YvDs7sy_ooSd-31" edge="1">
                    <mxGeometry relative="1" as="geometry"/>
                </mxCell>
                <mxCell id="24" value="&lt;b&gt;&lt;font style=&quot;font-size: 16px&quot;&gt;Dentro&amp;nbsp; del bucle cuando el usuario ingresa datos puedo:&lt;/font&gt;&lt;/b&gt;&amp;nbsp;&lt;br&gt;&lt;br&gt;&lt;br&gt;&amp;nbsp; &amp;nbsp; &amp;nbsp; &amp;nbsp; -&amp;nbsp; &lt;b&gt;&lt;font color=&quot;#66ffff&quot;&gt;Contar&lt;/font&gt;&lt;/b&gt; datos que cumplen sierta condicion&lt;br&gt;&lt;br&gt;&lt;br&gt;&lt;span style=&quot;white-space: pre&quot;&gt;&#9;&lt;/span&gt;-&amp;nbsp; &lt;b&gt;&lt;font color=&quot;#66ffff&quot;&gt;Acumular&lt;/font&gt;&lt;/b&gt; datos que cumplen sierta condicion&lt;br&gt;&lt;br&gt;&lt;br&gt;&lt;span style=&quot;white-space: pre&quot;&gt;&#9;&lt;/span&gt;-&amp;nbsp; Buscar &lt;b&gt;&lt;font color=&quot;#66ffff&quot;&gt;mayores&lt;/font&gt; &lt;/b&gt;o &lt;b&gt;&lt;font color=&quot;#66ffff&quot;&gt;menores&lt;/font&gt;&lt;br&gt;&lt;/b&gt;&lt;br&gt;&lt;br&gt;&lt;span style=&quot;white-space: pre&quot;&gt;&#9;&lt;/span&gt;-&amp;nbsp; Setear alguna variable para calculos posteriores&lt;br&gt;&lt;span style=&quot;white-space: pre&quot;&gt;&#9;&lt;/span&gt;( ej:&amp;nbsp; el % de descuento&amp;nbsp;para aplicar al final de un tiket)&lt;br&gt;&lt;div style=&quot;text-align: justify&quot;&gt;&lt;/div&gt;" style="whiteSpace=wrap;html=1;align=left;" parent="1" vertex="1">
                    <mxGeometry x="142" y="301" width="350" height="280" as="geometry"/>
                </mxCell>
                <mxCell id="26" value="&lt;span style=&quot;background-color: rgb(30 , 30 , 30) ; font-family: &amp;#34;consolas&amp;#34; , &amp;#34;courier new&amp;#34; , monospace ; font-size: 16px ; color: rgb(197 , 134 , 192)&quot;&gt;for&lt;/span&gt;&lt;span style=&quot;background-color: rgb(30 , 30 , 30) ; color: rgb(212 , 212 , 212) ; font-family: &amp;#34;consolas&amp;#34; , &amp;#34;courier new&amp;#34; , monospace ; font-size: 16px&quot;&gt;(&lt;/span&gt;&lt;span style=&quot;background-color: rgb(30 , 30 , 30) ; font-family: &amp;#34;consolas&amp;#34; , &amp;#34;courier new&amp;#34; , monospace ; font-size: 16px ; color: rgb(86 , 156 , 214)&quot;&gt;var&lt;/span&gt;&lt;span style=&quot;background-color: rgb(30 , 30 , 30) ; color: rgb(212 , 212 , 212) ; font-family: &amp;#34;consolas&amp;#34; , &amp;#34;courier new&amp;#34; , monospace ; font-size: 16px&quot;&gt; &lt;/span&gt;&lt;span style=&quot;background-color: rgb(30 , 30 , 30) ; font-family: &amp;#34;consolas&amp;#34; , &amp;#34;courier new&amp;#34; , monospace ; font-size: 16px ; color: rgb(156 , 220 , 254)&quot;&gt;i&lt;/span&gt;&lt;span style=&quot;background-color: rgb(30 , 30 , 30) ; color: rgb(212 , 212 , 212) ; font-family: &amp;#34;consolas&amp;#34; , &amp;#34;courier new&amp;#34; , monospace ; font-size: 16px&quot;&gt;=&lt;/span&gt;&lt;span style=&quot;background-color: rgb(30 , 30 , 30) ; font-family: &amp;#34;consolas&amp;#34; , &amp;#34;courier new&amp;#34; , monospace ; font-size: 16px ; color: rgb(181 , 206 , 168)&quot;&gt;0&lt;/span&gt;&lt;span style=&quot;background-color: rgb(30 , 30 , 30) ; color: rgb(212 , 212 , 212) ; font-family: &amp;#34;consolas&amp;#34; , &amp;#34;courier new&amp;#34; , monospace ; font-size: 16px&quot;&gt;; &lt;/span&gt;&lt;span style=&quot;background-color: rgb(30 , 30 , 30) ; font-family: &amp;#34;consolas&amp;#34; , &amp;#34;courier new&amp;#34; , monospace ; font-size: 16px ; color: rgb(156 , 220 , 254)&quot;&gt;i&lt;/span&gt;&lt;span style=&quot;background-color: rgb(30 , 30 , 30) ; color: rgb(212 , 212 , 212) ; font-family: &amp;#34;consolas&amp;#34; , &amp;#34;courier new&amp;#34; , monospace ; font-size: 16px&quot;&gt;&amp;lt;&lt;/span&gt;&lt;span style=&quot;background-color: rgb(30 , 30 , 30) ; font-family: &amp;#34;consolas&amp;#34; , &amp;#34;courier new&amp;#34; , monospace ; font-size: 16px ; color: rgb(156 , 220 , 254)&quot;&gt;cantidadIteraciones&lt;/span&gt;&lt;span style=&quot;background-color: rgb(30 , 30 , 30) ; color: rgb(212 , 212 , 212) ; font-family: &amp;#34;consolas&amp;#34; , &amp;#34;courier new&amp;#34; , monospace ; font-size: 16px&quot;&gt;; &lt;/span&gt;&lt;span style=&quot;background-color: rgb(30 , 30 , 30) ; font-family: &amp;#34;consolas&amp;#34; , &amp;#34;courier new&amp;#34; , monospace ; font-size: 16px ; color: rgb(156 , 220 , 254)&quot;&gt;i&lt;/span&gt;&lt;span style=&quot;background-color: rgb(30 , 30 , 30) ; color: rgb(212 , 212 , 212) ; font-family: &amp;#34;consolas&amp;#34; , &amp;#34;courier new&amp;#34; , monospace ; font-size: 16px&quot;&gt;++)&lt;/span&gt;&lt;div style=&quot;color: rgb(212 , 212 , 212) ; background-color: rgb(30 , 30 , 30) ; font-family: &amp;#34;consolas&amp;#34; , &amp;#34;courier new&amp;#34; , monospace ; font-size: 16px ; line-height: 32px&quot;&gt;&lt;div&gt;{&lt;/div&gt;&lt;div&gt;&lt;span style=&quot;color: #6a9955&quot;&gt;// pido y valido los datos del usuario&lt;/span&gt;&lt;/div&gt;&lt;div&gt;}&lt;/div&gt;&lt;/div&gt;" style="text;html=1;strokeColor=none;fillColor=none;align=left;verticalAlign=middle;whiteSpace=wrap;rounded=0;" parent="1" vertex="1">
                    <mxGeometry x="582" y="-189" width="360" height="120" as="geometry"/>
                </mxCell>
                <mxCell id="tAmyZCT-YvDs7sy_ooSd-26" value="&lt;div style=&quot;color: rgb(212 , 212 , 212) ; background-color: rgb(30 , 30 , 30) ; font-family: &amp;#34;consolas&amp;#34; , &amp;#34;courier new&amp;#34; , monospace ; font-size: 16px ; line-height: 32px&quot;&gt;&lt;div&gt;&lt;span style=&quot;color: #9cdcfe&quot;&gt;contador&lt;/span&gt;++; &lt;/div&gt;&lt;div&gt;&lt;span style=&quot;color: #6a9955&quot;&gt;//contador = contador + 1;&lt;/span&gt;&lt;/div&gt;&lt;br&gt;&lt;div&gt;&lt;span style=&quot;color: #9cdcfe&quot;&gt;acumuladorTotal&lt;/span&gt; += &lt;span style=&quot;color: #9cdcfe&quot;&gt;precio&lt;/span&gt; * &lt;span style=&quot;color: #9cdcfe&quot;&gt;cantidad&lt;/span&gt;; &lt;/div&gt;&lt;div&gt;&lt;span style=&quot;color: #6a9955&quot;&gt;//acumuladorTotal = acumuladorTotal + precio*cantidad;&lt;/span&gt;&lt;/div&gt;&lt;br&gt;&lt;div&gt;&lt;span style=&quot;color: #9cdcfe&quot;&gt;menorEdad&lt;/span&gt; = &lt;span style=&quot;color: #9cdcfe&quot;&gt;edadIngresadaUsuario&lt;/span&gt;;&lt;/div&gt;&lt;br&gt;&lt;div&gt;&lt;span style=&quot;color: #9cdcfe&quot;&gt;descuemto&lt;/span&gt; = &lt;span style=&quot;color: #b5cea8&quot;&gt;20&lt;/span&gt;;&amp;nbsp;&lt;/div&gt;&lt;/div&gt;" style="text;html=1;strokeColor=none;fillColor=none;align=left;verticalAlign=middle;whiteSpace=wrap;rounded=0;fontSize=20;fontColor=#FFFF66;" parent="1" vertex="1">
                    <mxGeometry x="592" y="301" width="480" height="290" as="geometry"/>
                </mxCell>
                <mxCell id="-tEy_oJStVZ8itDgpti_-28" style="edgeStyle=none;html=1;entryX=-0.023;entryY=0.46;entryDx=0;entryDy=0;entryPerimeter=0;fontSize=16;fontColor=#66FFFF;" parent="1" source="tAmyZCT-YvDs7sy_ooSd-31" target="-tEy_oJStVZ8itDgpti_-27" edge="1">
                    <mxGeometry relative="1" as="geometry"/>
                </mxCell>
                <mxCell id="tAmyZCT-YvDs7sy_ooSd-31" value="&lt;b&gt;&lt;font style=&quot;font-size: 16px&quot;&gt;Fuera&amp;nbsp; del bucle cuando termino el ingreso de datos puedo:&lt;/font&gt;&lt;/b&gt;&amp;nbsp;&lt;br&gt;&lt;br&gt;&lt;br&gt;&amp;nbsp; &amp;nbsp; &amp;nbsp; &amp;nbsp; -&amp;nbsp; &lt;b&gt;Calcular &lt;font color=&quot;#66ffff&quot;&gt;promedios&lt;/font&gt;&lt;/b&gt;&lt;br&gt;&lt;br&gt;&lt;br&gt;&lt;span style=&quot;white-space: pre&quot;&gt;&#9;&lt;/span&gt;-&amp;nbsp; &lt;b&gt;Realisar algun calculo con los&lt;br&gt;&lt;span style=&quot;white-space: pre&quot;&gt;&#9;&lt;/span&gt;&amp;nbsp; &amp;nbsp;datos acumulados en el ciclo de entrada&lt;/b&gt;&lt;br&gt;&lt;br&gt;&lt;br&gt;&lt;b&gt;&lt;br&gt;&lt;/b&gt;&lt;br&gt;&lt;br&gt;&lt;span style=&quot;white-space: pre&quot;&gt;&#9;&lt;/span&gt;&lt;br&gt;&lt;div style=&quot;text-align: justify&quot;&gt;&lt;/div&gt;" style="whiteSpace=wrap;html=1;align=left;" parent="1" vertex="1">
                    <mxGeometry x="141" y="674" width="351" height="257" as="geometry"/>
                </mxCell>
                <mxCell id="-tEy_oJStVZ8itDgpti_-27" value="&lt;div style=&quot;color: rgb(212 , 212 , 212) ; background-color: rgb(30 , 30 , 30) ; font-family: &amp;#34;consolas&amp;#34; , &amp;#34;courier new&amp;#34; , monospace ; line-height: 32px&quot;&gt;// IMPORTANTE contador !=0&lt;br&gt;&lt;div&gt;&lt;span style=&quot;color: #c586c0&quot;&gt;if&lt;/span&gt;( &lt;span style=&quot;color: #9cdcfe&quot;&gt;contodor&lt;/span&gt;&amp;gt;&lt;span style=&quot;color: #b5cea8&quot;&gt;0&lt;/span&gt; ){&lt;/div&gt;&lt;div&gt;&amp;nbsp; &lt;span style=&quot;color: #9cdcfe&quot;&gt;promedio&lt;/span&gt; = &lt;span style=&quot;color: #9cdcfe&quot;&gt;acumulador&lt;/span&gt;/&lt;span style=&quot;color: #9cdcfe&quot;&gt;contador&lt;/span&gt;;&lt;/div&gt;&lt;div&gt;}&lt;/div&gt;&lt;div&gt;&lt;span style=&quot;color: #6a9955&quot;&gt;// promedio puede tomar un valor decimal&amp;nbsp;&amp;nbsp;&lt;/span&gt;&lt;/div&gt;&lt;div&gt;&amp;nbsp;&lt;/div&gt;&lt;/div&gt;" style="text;html=1;strokeColor=none;fillColor=none;align=left;verticalAlign=middle;whiteSpace=wrap;rounded=0;fontSize=16;fontColor=#66FFFF;" parent="1" vertex="1">
                    <mxGeometry x="608" y="706" width="370" height="210" as="geometry"/>
                </mxCell>
                <mxCell id="ZUgMRej3UojgTTt672wi-26" value="Capa sin título" style="locked=1;" parent="0"/>
                <mxCell id="jNeimpQcNCr0YVGUpnvg-26" value="" style="group" parent="ZUgMRej3UojgTTt672wi-26" vertex="1" connectable="0">
                    <mxGeometry x="176" y="-683" width="760" height="413" as="geometry"/>
                </mxCell>
                <mxCell id="CUbevynoxDnsRuS-tICr-26" value="Conjunto de tuplas de datos" style="text;html=1;align=center;verticalAlign=middle;resizable=0;points=[];autosize=1;strokeColor=none;fillColor=none;fontSize=31;fontColor=#FFFF66;" parent="jNeimpQcNCr0YVGUpnvg-26" vertex="1">
                    <mxGeometry x="184.99505747126437" y="-3" width="396" height="41" as="geometry"/>
                </mxCell>
                <mxCell id="CUbevynoxDnsRuS-tICr-27" value="" style="ellipse;whiteSpace=wrap;html=1;shadow=1;glass=0;sketch=1;fontSize=31;fontColor=#FFFF66;gradientColor=none;" parent="jNeimpQcNCr0YVGUpnvg-26" vertex="1">
                    <mxGeometry y="66.951171875" width="760" height="346.048828125" as="geometry"/>
                </mxCell>
                <mxCell id="CUbevynoxDnsRuS-tICr-28" value="tupla 2" style="swimlane;fontStyle=0;childLayout=stackLayout;horizontal=1;startSize=30;horizontalStack=0;resizeParent=1;resizeParentMax=0;resizeLast=0;collapsible=1;marginBottom=0;shadow=1;glass=0;sketch=1;fontSize=19;fontColor=#FFFF66;gradientColor=none;" parent="jNeimpQcNCr0YVGUpnvg-26" vertex="1">
                    <mxGeometry x="243.72413793103448" y="104.056640625" width="122.29885057471266" height="102.59765625" as="geometry"/>
                </mxCell>
                <mxCell id="CUbevynoxDnsRuS-tICr-29" value="Nombre" style="text;strokeColor=none;fillColor=none;align=left;verticalAlign=middle;spacingLeft=4;spacingRight=4;overflow=hidden;points=[[0,0.5],[1,0.5]];portConstraint=eastwest;rotatable=0;shadow=1;glass=0;sketch=1;fontSize=17;fontColor=#FFFF66;" parent="CUbevynoxDnsRuS-tICr-28" vertex="1">
                    <mxGeometry y="30" width="122.29885057471266" height="24.19921875" as="geometry"/>
                </mxCell>
                <mxCell id="CUbevynoxDnsRuS-tICr-30" value="Edad" style="text;strokeColor=none;fillColor=none;align=left;verticalAlign=middle;spacingLeft=4;spacingRight=4;overflow=hidden;points=[[0,0.5],[1,0.5]];portConstraint=eastwest;rotatable=0;shadow=1;glass=0;sketch=1;fontSize=17;fontColor=#FFFF66;" parent="CUbevynoxDnsRuS-tICr-28" vertex="1">
                    <mxGeometry y="54.19921875" width="122.29885057471266" height="24.19921875" as="geometry"/>
                </mxCell>
                <mxCell id="CUbevynoxDnsRuS-tICr-31" value="DNI" style="text;strokeColor=none;fillColor=none;align=left;verticalAlign=middle;spacingLeft=4;spacingRight=4;overflow=hidden;points=[[0,0.5],[1,0.5]];portConstraint=eastwest;rotatable=0;shadow=1;glass=0;sketch=1;fontSize=17;fontColor=#FFFF66;" parent="CUbevynoxDnsRuS-tICr-28" vertex="1">
                    <mxGeometry y="78.3984375" width="122.29885057471266" height="24.19921875" as="geometry"/>
                </mxCell>
                <mxCell id="CUbevynoxDnsRuS-tICr-34" value="tupla 3" style="swimlane;fontStyle=0;childLayout=stackLayout;horizontal=1;startSize=30;horizontalStack=0;resizeParent=1;resizeParentMax=0;resizeLast=0;collapsible=1;marginBottom=0;shadow=1;glass=0;sketch=1;fontSize=19;fontColor=#FFFF66;gradientColor=none;" parent="jNeimpQcNCr0YVGUpnvg-26" vertex="1">
                    <mxGeometry x="450.7586206896552" y="104.056640625" width="122.29885057471266" height="102.59765625" as="geometry"/>
                </mxCell>
                <mxCell id="CUbevynoxDnsRuS-tICr-35" value="Nombre" style="text;strokeColor=none;fillColor=none;align=left;verticalAlign=middle;spacingLeft=4;spacingRight=4;overflow=hidden;points=[[0,0.5],[1,0.5]];portConstraint=eastwest;rotatable=0;shadow=1;glass=0;sketch=1;fontSize=17;fontColor=#FFFF66;" parent="CUbevynoxDnsRuS-tICr-34" vertex="1">
                    <mxGeometry y="30" width="122.29885057471266" height="24.19921875" as="geometry"/>
                </mxCell>
                <mxCell id="CUbevynoxDnsRuS-tICr-36" value="Edad" style="text;strokeColor=none;fillColor=none;align=left;verticalAlign=middle;spacingLeft=4;spacingRight=4;overflow=hidden;points=[[0,0.5],[1,0.5]];portConstraint=eastwest;rotatable=0;shadow=1;glass=0;sketch=1;fontSize=17;fontColor=#FFFF66;" parent="CUbevynoxDnsRuS-tICr-34" vertex="1">
                    <mxGeometry y="54.19921875" width="122.29885057471266" height="24.19921875" as="geometry"/>
                </mxCell>
                <mxCell id="CUbevynoxDnsRuS-tICr-37" value="DNI" style="text;strokeColor=none;fillColor=none;align=left;verticalAlign=middle;spacingLeft=4;spacingRight=4;overflow=hidden;points=[[0,0.5],[1,0.5]];portConstraint=eastwest;rotatable=0;shadow=1;glass=0;sketch=1;fontSize=17;fontColor=#FFFF66;" parent="CUbevynoxDnsRuS-tICr-34" vertex="1">
                    <mxGeometry y="78.3984375" width="122.29885057471266" height="24.19921875" as="geometry"/>
                </mxCell>
                <mxCell id="CUbevynoxDnsRuS-tICr-38" value="tupla 1" style="swimlane;fontStyle=0;childLayout=stackLayout;horizontal=1;startSize=30;horizontalStack=0;resizeParent=1;resizeParentMax=0;resizeLast=0;collapsible=1;marginBottom=0;shadow=1;glass=0;sketch=1;fontSize=19;fontColor=#FFFF66;gradientColor=none;" parent="jNeimpQcNCr0YVGUpnvg-26" vertex="1">
                    <mxGeometry x="55.9080459770115" y="167.78125" width="122.29885057471266" height="102.59765625" as="geometry"/>
                </mxCell>
                <mxCell id="CUbevynoxDnsRuS-tICr-39" value="Nombre" style="text;strokeColor=none;fillColor=none;align=left;verticalAlign=middle;spacingLeft=4;spacingRight=4;overflow=hidden;points=[[0,0.5],[1,0.5]];portConstraint=eastwest;rotatable=0;shadow=1;glass=0;sketch=1;fontSize=17;fontColor=#FFFF66;" parent="CUbevynoxDnsRuS-tICr-38" vertex="1">
                    <mxGeometry y="30" width="122.29885057471266" height="24.19921875" as="geometry"/>
                </mxCell>
                <mxCell id="CUbevynoxDnsRuS-tICr-40" value="Edad" style="text;strokeColor=none;fillColor=none;align=left;verticalAlign=middle;spacingLeft=4;spacingRight=4;overflow=hidden;points=[[0,0.5],[1,0.5]];portConstraint=eastwest;rotatable=0;shadow=1;glass=0;sketch=1;fontSize=17;fontColor=#FFFF66;" parent="CUbevynoxDnsRuS-tICr-38" vertex="1">
                    <mxGeometry y="54.19921875" width="122.29885057471266" height="24.19921875" as="geometry"/>
                </mxCell>
                <mxCell id="CUbevynoxDnsRuS-tICr-41" value="DNI" style="text;strokeColor=none;fillColor=none;align=left;verticalAlign=middle;spacingLeft=4;spacingRight=4;overflow=hidden;points=[[0,0.5],[1,0.5]];portConstraint=eastwest;rotatable=0;shadow=1;glass=0;sketch=1;fontSize=17;fontColor=#FFFF66;" parent="CUbevynoxDnsRuS-tICr-38" vertex="1">
                    <mxGeometry y="78.3984375" width="122.29885057471266" height="24.19921875" as="geometry"/>
                </mxCell>
                <mxCell id="CUbevynoxDnsRuS-tICr-42" value="tupla 4" style="swimlane;fontStyle=0;childLayout=stackLayout;horizontal=1;startSize=30;horizontalStack=0;resizeParent=1;resizeParentMax=0;resizeLast=0;collapsible=1;marginBottom=0;shadow=1;glass=0;sketch=1;fontSize=19;fontColor=#FFFF66;gradientColor=none;" parent="jNeimpQcNCr0YVGUpnvg-26" vertex="1">
                    <mxGeometry x="239.35632183908046" y="255.705078125" width="122.29885057471266" height="102.59765625" as="geometry"/>
                </mxCell>
                <mxCell id="CUbevynoxDnsRuS-tICr-43" value="Nombre" style="text;strokeColor=none;fillColor=none;align=left;verticalAlign=middle;spacingLeft=4;spacingRight=4;overflow=hidden;points=[[0,0.5],[1,0.5]];portConstraint=eastwest;rotatable=0;shadow=1;glass=0;sketch=1;fontSize=17;fontColor=#FFFF66;" parent="CUbevynoxDnsRuS-tICr-42" vertex="1">
                    <mxGeometry y="30" width="122.29885057471266" height="24.19921875" as="geometry"/>
                </mxCell>
                <mxCell id="CUbevynoxDnsRuS-tICr-44" value="Edad" style="text;strokeColor=none;fillColor=none;align=left;verticalAlign=middle;spacingLeft=4;spacingRight=4;overflow=hidden;points=[[0,0.5],[1,0.5]];portConstraint=eastwest;rotatable=0;shadow=1;glass=0;sketch=1;fontSize=17;fontColor=#FFFF66;" parent="CUbevynoxDnsRuS-tICr-42" vertex="1">
                    <mxGeometry y="54.19921875" width="122.29885057471266" height="24.19921875" as="geometry"/>
                </mxCell>
                <mxCell id="CUbevynoxDnsRuS-tICr-45" value="DNI" style="text;strokeColor=none;fillColor=none;align=left;verticalAlign=middle;spacingLeft=4;spacingRight=4;overflow=hidden;points=[[0,0.5],[1,0.5]];portConstraint=eastwest;rotatable=0;shadow=1;glass=0;sketch=1;fontSize=17;fontColor=#FFFF66;" parent="CUbevynoxDnsRuS-tICr-42" vertex="1">
                    <mxGeometry y="78.3984375" width="122.29885057471266" height="24.19921875" as="geometry"/>
                </mxCell>
                <mxCell id="CUbevynoxDnsRuS-tICr-46" value="tupla 5" style="swimlane;fontStyle=0;childLayout=stackLayout;horizontal=1;startSize=30;horizontalStack=0;resizeParent=1;resizeParentMax=0;resizeLast=0;collapsible=1;marginBottom=0;shadow=1;glass=0;sketch=1;fontSize=19;fontColor=#FFFF66;gradientColor=none;" parent="jNeimpQcNCr0YVGUpnvg-26" vertex="1">
                    <mxGeometry x="450.7586206896552" y="262.158203125" width="122.29885057471266" height="102.59765625" as="geometry"/>
                </mxCell>
                <mxCell id="CUbevynoxDnsRuS-tICr-47" value="Nombre" style="text;strokeColor=none;fillColor=none;align=left;verticalAlign=middle;spacingLeft=4;spacingRight=4;overflow=hidden;points=[[0,0.5],[1,0.5]];portConstraint=eastwest;rotatable=0;shadow=1;glass=0;sketch=1;fontSize=17;fontColor=#FFFF66;" parent="CUbevynoxDnsRuS-tICr-46" vertex="1">
                    <mxGeometry y="30" width="122.29885057471266" height="24.19921875" as="geometry"/>
                </mxCell>
                <mxCell id="CUbevynoxDnsRuS-tICr-48" value="Edad" style="text;strokeColor=none;fillColor=none;align=left;verticalAlign=middle;spacingLeft=4;spacingRight=4;overflow=hidden;points=[[0,0.5],[1,0.5]];portConstraint=eastwest;rotatable=0;shadow=1;glass=0;sketch=1;fontSize=17;fontColor=#FFFF66;" parent="CUbevynoxDnsRuS-tICr-46" vertex="1">
                    <mxGeometry y="54.19921875" width="122.29885057471266" height="24.19921875" as="geometry"/>
                </mxCell>
                <mxCell id="CUbevynoxDnsRuS-tICr-49" value="DNI" style="text;strokeColor=none;fillColor=none;align=left;verticalAlign=middle;spacingLeft=4;spacingRight=4;overflow=hidden;points=[[0,0.5],[1,0.5]];portConstraint=eastwest;rotatable=0;shadow=1;glass=0;sketch=1;fontSize=17;fontColor=#FFFF66;" parent="CUbevynoxDnsRuS-tICr-46" vertex="1">
                    <mxGeometry y="78.3984375" width="122.29885057471266" height="24.19921875" as="geometry"/>
                </mxCell>
            </root>
        </mxGraphModel>
    </diagram>
    <diagram id="WL6AewHJHmb_0k1CiG1X" name="Validaciones">
        <mxGraphModel dx="1266" dy="609" grid="0" gridSize="10" guides="1" tooltips="1" connect="1" arrows="1" fold="1" page="1" pageScale="1" pageWidth="1169" pageHeight="827" math="0" shadow="0">
            <root>
                <mxCell id="__sn3cBMmpdRBRPK4-8y-0"/>
                <mxCell id="__sn3cBMmpdRBRPK4-8y-1" style="locked=1;" parent="__sn3cBMmpdRBRPK4-8y-0"/>
                <mxCell id="AegxrRPMY47T-G4UvrQR-0" value="&lt;div style=&quot;color: rgb(212 , 212 , 212) ; background-color: rgb(30 , 30 , 30) ; font-family: &amp;#34;consolas&amp;#34; , &amp;#34;courier new&amp;#34; , monospace ; line-height: 32px&quot;&gt;&lt;div&gt;&lt;span style=&quot;color: #c586c0&quot;&gt;do&lt;/span&gt; {&lt;/div&gt;&lt;div&gt;&amp;nbsp; &lt;span style=&quot;color: #9cdcfe&quot;&gt;Numero&lt;/span&gt; = &lt;span style=&quot;color: #dcdcaa&quot;&gt;prompt&lt;/span&gt;(&lt;span style=&quot;color: #ce9178&quot;&gt;'ingrese numero positivo ( mayor o igual a 0 ):'&lt;/span&gt;);&lt;/div&gt;&lt;div&gt;&amp;nbsp; &lt;span style=&quot;color: #9cdcfe&quot;&gt;Numero&lt;/span&gt; = &lt;span style=&quot;color: #dcdcaa&quot;&gt;parseInt&lt;/span&gt;(&lt;span style=&quot;color: #9cdcfe&quot;&gt;Numero&lt;/span&gt;);&lt;/div&gt;&lt;div&gt;}&lt;span style=&quot;color: #c586c0&quot;&gt;while&lt;/span&gt;( &lt;span style=&quot;color: #9cdcfe&quot;&gt;numero&lt;/span&gt; &amp;lt; &lt;span style=&quot;color: #b5cea8&quot;&gt;0&lt;/span&gt; ) &lt;span style=&quot;color: #6a9955&quot;&gt;// while (!(Numero &amp;gt;= 0))&lt;/span&gt;&lt;/div&gt;&lt;/div&gt;" style="text;html=1;strokeColor=none;fillColor=none;align=left;verticalAlign=middle;whiteSpace=wrap;rounded=0;fontSize=16;" parent="__sn3cBMmpdRBRPK4-8y-1" vertex="1">
                    <mxGeometry x="211" y="449" width="610" height="130" as="geometry"/>
                </mxCell>
                <mxCell id="AegxrRPMY47T-G4UvrQR-1" value="&lt;span style=&quot;text-align: left&quot;&gt;&lt;b&gt;&lt;font style=&quot;font-size: 20px&quot;&gt;Mayor / Menor que un numero&lt;/font&gt;&lt;/b&gt;&lt;/span&gt;" style="text;html=1;strokeColor=none;fillColor=none;align=center;verticalAlign=middle;whiteSpace=wrap;rounded=0;fontSize=16;" parent="__sn3cBMmpdRBRPK4-8y-1" vertex="1">
                    <mxGeometry x="120" y="360" width="300" height="30" as="geometry"/>
                </mxCell>
                <mxCell id="AegxrRPMY47T-G4UvrQR-2" value="&lt;h1&gt;Validar numeros&lt;/h1&gt;&lt;p&gt;Mayor / Menor que un numero&lt;/p&gt;&lt;p&gt;Dentro / Fuera de un rango de valores&lt;/p&gt;" style="text;html=1;strokeColor=none;fillColor=none;spacing=5;spacingTop=-20;whiteSpace=wrap;overflow=hidden;rounded=0;fontSize=16;" parent="__sn3cBMmpdRBRPK4-8y-1" vertex="1">
                    <mxGeometry x="83" y="79" width="310" height="170" as="geometry"/>
                </mxCell>
                <mxCell id="AegxrRPMY47T-G4UvrQR-14" value="" style="group" parent="__sn3cBMmpdRBRPK4-8y-1" vertex="1" connectable="0">
                    <mxGeometry x="251" y="634" width="360" height="50" as="geometry"/>
                </mxCell>
                <mxCell id="AegxrRPMY47T-G4UvrQR-4" value="&lt;font color=&quot;#ffff00&quot;&gt;0&lt;/font&gt;" style="text;html=1;strokeColor=none;fillColor=none;align=center;verticalAlign=middle;whiteSpace=wrap;rounded=0;fontSize=16;" parent="AegxrRPMY47T-G4UvrQR-14" vertex="1">
                    <mxGeometry x="170" y="20" width="20" height="20" as="geometry"/>
                </mxCell>
                <mxCell id="AegxrRPMY47T-G4UvrQR-8" value="" style="shape=flexArrow;endArrow=classic;html=1;fontSize=16;labelBackgroundColor=none;fillColor=#60a917;strokeColor=#2D7600;" parent="AegxrRPMY47T-G4UvrQR-14" edge="1">
                    <mxGeometry width="50" height="50" relative="1" as="geometry">
                        <mxPoint x="180" as="sourcePoint"/>
                        <mxPoint x="360" as="targetPoint"/>
                        <Array as="points">
                            <mxPoint x="180"/>
                        </Array>
                    </mxGeometry>
                </mxCell>
                <mxCell id="AegxrRPMY47T-G4UvrQR-11" value="" style="shape=flexArrow;endArrow=classic;html=1;fontSize=16;fillColor=#a20025;strokeColor=#6F0000;" parent="AegxrRPMY47T-G4UvrQR-14" edge="1">
                    <mxGeometry width="50" height="50" relative="1" as="geometry">
                        <mxPoint x="180" as="sourcePoint"/>
                        <mxPoint as="targetPoint"/>
                    </mxGeometry>
                </mxCell>
                <mxCell id="AegxrRPMY47T-G4UvrQR-12" value="1&amp;nbsp; &amp;nbsp; &amp;nbsp;2&amp;nbsp; &amp;nbsp; 3&amp;nbsp; &amp;nbsp;4&amp;nbsp; ........&lt;font color=&quot;#ffff66&quot;&gt;.....&lt;/font&gt;" style="text;html=1;strokeColor=none;fillColor=none;align=center;verticalAlign=middle;whiteSpace=wrap;rounded=0;fontSize=16;" parent="AegxrRPMY47T-G4UvrQR-14" vertex="1">
                    <mxGeometry x="190" y="15" width="170" height="30" as="geometry"/>
                </mxCell>
                <mxCell id="AegxrRPMY47T-G4UvrQR-13" value=".......&amp;nbsp; -4&amp;nbsp; &amp;nbsp;-3&amp;nbsp; &amp;nbsp;-2&amp;nbsp; &amp;nbsp;-1" style="text;html=1;align=center;verticalAlign=middle;resizable=0;points=[];autosize=1;strokeColor=none;fillColor=none;fontSize=16;" parent="AegxrRPMY47T-G4UvrQR-14" vertex="1">
                    <mxGeometry x="10" y="20" width="150" height="20" as="geometry"/>
                </mxCell>
                <mxCell id="vcfsVstc_lvA9KYxTBaH-9" value="" style="endArrow=classic;startArrow=classic;html=1;labelBackgroundColor=none;fontSize=20;fontColor=#FFFF66;" parent="AegxrRPMY47T-G4UvrQR-14" edge="1">
                    <mxGeometry width="50" height="50" relative="1" as="geometry">
                        <mxPoint y="47" as="sourcePoint"/>
                        <mxPoint x="367" y="47" as="targetPoint"/>
                    </mxGeometry>
                </mxCell>
                <mxCell id="AegxrRPMY47T-G4UvrQR-16" value="&lt;span style=&quot;color: rgb(240 , 240 , 240) ; text-align: left&quot;&gt;&lt;b&gt;&lt;font style=&quot;font-size: 20px&quot;&gt;Dentro / Fuera de un rango de valores&lt;/font&gt;&lt;/b&gt;&lt;/span&gt;" style="text;html=1;align=center;verticalAlign=middle;resizable=0;points=[];autosize=1;strokeColor=none;fillColor=none;fontSize=16;fontColor=#FFFF00;" parent="__sn3cBMmpdRBRPK4-8y-1" vertex="1">
                    <mxGeometry x="70" y="838" width="380" height="30" as="geometry"/>
                </mxCell>
                <mxCell id="vcfsVstc_lvA9KYxTBaH-3" value="EJ: numero positivo" style="text;html=1;align=center;verticalAlign=middle;resizable=0;points=[];autosize=1;strokeColor=none;fillColor=none;fontSize=16;fontColor=#F0F0F0;" parent="__sn3cBMmpdRBRPK4-8y-1" vertex="1">
                    <mxGeometry x="335" y="410" width="151" height="23" as="geometry"/>
                </mxCell>
                <mxCell id="vcfsVstc_lvA9KYxTBaH-7" value="" style="endArrow=classic;html=1;labelBackgroundColor=none;fontSize=20;fontColor=#FFFF66;entryX=0.196;entryY=1.003;entryDx=0;entryDy=0;entryPerimeter=0;" parent="__sn3cBMmpdRBRPK4-8y-1" target="AegxrRPMY47T-G4UvrQR-0" edge="1">
                    <mxGeometry width="50" height="50" relative="1" as="geometry">
                        <mxPoint x="331" y="620" as="sourcePoint"/>
                        <mxPoint x="567" y="706" as="targetPoint"/>
                    </mxGeometry>
                </mxCell>
                <mxCell id="vcfsVstc_lvA9KYxTBaH-8" value="" style="endArrow=classic;html=1;labelBackgroundColor=none;fontSize=20;fontColor=#FFFF66;" parent="__sn3cBMmpdRBRPK4-8y-1" edge="1">
                    <mxGeometry width="50" height="50" relative="1" as="geometry">
                        <mxPoint x="534.5" y="619" as="sourcePoint"/>
                        <mxPoint x="534.5" y="575" as="targetPoint"/>
                    </mxGeometry>
                </mxCell>
                <mxCell id="q-qqW4od3pI8SFq5pfu_-1" value="&lt;h1&gt;Validar string&lt;/h1&gt;&lt;p&gt;&lt;br&gt;&lt;/p&gt;&lt;p&gt;igual a un caracter&lt;/p&gt;&lt;p&gt;&lt;br&gt;&lt;/p&gt;&lt;p&gt;no vacio ni nulo&lt;/p&gt;&lt;p&gt;&lt;br&gt;&lt;/p&gt;&lt;p&gt;igual cadena de caracteres&lt;br&gt;&lt;/p&gt;&lt;p&gt;&lt;br&gt;&lt;/p&gt;" style="text;html=1;strokeColor=none;fillColor=none;spacing=5;spacingTop=-20;whiteSpace=wrap;overflow=hidden;rounded=0;fontSize=16;" parent="__sn3cBMmpdRBRPK4-8y-1" vertex="1">
                    <mxGeometry x="33" y="1750" width="255" height="279" as="geometry"/>
                </mxCell>
                <mxCell id="7bWslu9p_hP42XerB_Ps-0" value="&lt;div style=&quot;text-align: left&quot;&gt;&lt;span style=&quot;background-color: rgb(30 , 30 , 30) ; color: rgb(212 , 212 , 212) ; font-family: &amp;#34;consolas&amp;#34; , &amp;#34;courier new&amp;#34; , monospace&quot;&gt;&amp;nbsp; &amp;nbsp; &amp;nbsp; &amp;nbsp; &amp;nbsp; &amp;nbsp; &amp;nbsp; &amp;nbsp; &amp;nbsp; &amp;nbsp; &amp;nbsp; &amp;nbsp; &amp;nbsp; &amp;nbsp; &amp;nbsp; &amp;nbsp; &amp;nbsp; &amp;nbsp; &amp;nbsp; &amp;nbsp; &amp;nbsp; &amp;nbsp; &amp;nbsp; &amp;nbsp; &amp;nbsp; &amp;nbsp; &amp;nbsp; &amp;nbsp; &amp;nbsp; &amp;nbsp; &amp;nbsp; &amp;nbsp; &amp;nbsp; &amp;nbsp;&amp;nbsp;&lt;/span&gt;&lt;/div&gt;&lt;div style=&quot;color: rgb(212 , 212 , 212) ; background-color: rgb(30 , 30 , 30) ; font-family: &amp;#34;consolas&amp;#34; , &amp;#34;courier new&amp;#34; , monospace ; line-height: 32px&quot;&gt;&lt;div style=&quot;text-align: left&quot;&gt;&lt;span style=&quot;color: #c586c0&quot;&gt;do&lt;/span&gt; {&lt;/div&gt;&lt;div style=&quot;text-align: left&quot;&gt;&amp;nbsp; &lt;span style=&quot;color: #9cdcfe&quot;&gt;nombre&lt;/span&gt; = &lt;span style=&quot;color: #dcdcaa&quot;&gt;prompt&lt;/span&gt;(&lt;span style=&quot;color: #ce9178&quot;&gt;'ingrese su nombre :'&lt;/span&gt;);&lt;/div&gt;&lt;div style=&quot;text-align: left&quot;&gt;} &lt;span style=&quot;color: #c586c0&quot;&gt;while&lt;/span&gt;(&lt;span style=&quot;color: #9cdcfe&quot;&gt;nombre&lt;/span&gt; != &lt;span style=&quot;color: #ce9178&quot;&gt;&quot;&quot;&lt;/span&gt; &amp;amp;&amp;amp; &lt;span style=&quot;color: #9cdcfe&quot;&gt;nombre&lt;/span&gt; != &lt;span style=&quot;color: #569cd6&quot;&gt;null&lt;/span&gt; &amp;amp;&amp;amp; &lt;span style=&quot;color: #9cdcfe&quot;&gt;nombre&lt;/span&gt; != &lt;span style=&quot;color: #569cd6&quot;&gt;undefined&lt;/span&gt;);&lt;/div&gt;&lt;div style=&quot;text-align: left&quot;&gt;&lt;span style=&quot;color: #6a9955&quot;&gt;//While( !(nombre == &quot;&quot; || nombre == null || nombre == undefined) );&lt;/span&gt;&lt;/div&gt;&lt;div&gt;&amp;nbsp; &amp;nbsp;&lt;/div&gt;&lt;/div&gt;" style="text;html=1;align=center;verticalAlign=middle;resizable=0;points=[];autosize=1;strokeColor=none;fillColor=none;fontSize=16;fontColor=#66FFFF;" parent="__sn3cBMmpdRBRPK4-8y-1" vertex="1">
                    <mxGeometry x="395" y="1958" width="608" height="183" as="geometry"/>
                </mxCell>
                <mxCell id="7bWslu9p_hP42XerB_Ps-1" value="&lt;span style=&quot;background-color: rgb(30 , 30 , 30) ; font-family: &amp;#34;consolas&amp;#34; , &amp;#34;courier new&amp;#34; , monospace ; color: rgb(197 , 134 , 192)&quot;&gt;do&lt;/span&gt;&lt;span style=&quot;background-color: rgb(30 , 30 , 30) ; color: rgb(212 , 212 , 212) ; font-family: &amp;#34;consolas&amp;#34; , &amp;#34;courier new&amp;#34; , monospace&quot;&gt; {&amp;nbsp; &amp;nbsp; &amp;nbsp; &amp;nbsp; &amp;nbsp; &amp;nbsp; &amp;nbsp; &amp;nbsp; &amp;nbsp; &amp;nbsp; &amp;nbsp; &amp;nbsp; &amp;nbsp; &amp;nbsp; &amp;nbsp; &amp;nbsp; &amp;nbsp; &amp;nbsp; &amp;nbsp; &amp;nbsp; &amp;nbsp; &amp;nbsp; &amp;nbsp; &amp;nbsp; &amp;nbsp; &amp;nbsp; &amp;nbsp; &amp;nbsp; &amp;nbsp; &amp;nbsp; &amp;nbsp; &amp;nbsp; &amp;nbsp; &amp;nbsp; &amp;nbsp; &amp;nbsp; &amp;nbsp; &amp;nbsp; &amp;nbsp; &amp;nbsp; &amp;nbsp; &amp;nbsp; &amp;nbsp; &amp;nbsp; &amp;nbsp; &amp;nbsp; &amp;nbsp; &amp;nbsp; &amp;nbsp; &amp;nbsp; &amp;nbsp; &amp;nbsp; &amp;nbsp; &amp;nbsp; &amp;nbsp; &amp;nbsp; &amp;nbsp;&amp;nbsp;&lt;/span&gt;&lt;div style=&quot;color: rgb(212 , 212 , 212) ; background-color: rgb(30 , 30 , 30) ; font-family: &amp;#34;consolas&amp;#34; , &amp;#34;courier new&amp;#34; , monospace ; line-height: 32px&quot;&gt;&lt;div&gt;&amp;nbsp; &lt;span style=&quot;color: #9cdcfe&quot;&gt;estadoCivil&lt;/span&gt; = &lt;span style=&quot;color: #dcdcaa&quot;&gt;prompt&lt;/span&gt;(&lt;span style=&quot;color: #ce9178&quot;&gt;'ingrese estado civil [casado-viudo-soltero-divorciado]:'&lt;/span&gt;);&lt;/div&gt;&lt;div&gt;} &lt;span style=&quot;color: #c586c0&quot;&gt;while&lt;/span&gt;( !(&lt;span style=&quot;color: #9cdcfe&quot;&gt;estadoCivil&lt;/span&gt; ==&lt;span style=&quot;color: #ce9178&quot;&gt;'casado'&lt;/span&gt; || &lt;span style=&quot;color: #9cdcfe&quot;&gt;estadoCivil&lt;/span&gt; ==&lt;span style=&quot;color: #ce9178&quot;&gt;'viudo'&lt;/span&gt; || &lt;span style=&quot;color: #9cdcfe&quot;&gt;estadoCivil&lt;/span&gt; == &lt;span style=&quot;color: #ce9178&quot;&gt;'soltero'&lt;/span&gt; || &lt;span style=&quot;color: #9cdcfe&quot;&gt;estadoCivil&lt;/span&gt; == &lt;span style=&quot;color: #ce9178&quot;&gt;'soltero'&lt;/span&gt;) ); &lt;/div&gt;&lt;div&gt;&lt;span style=&quot;color: #6a9955&quot;&gt;// while( estadoCivil != 'casado' &amp;amp;&amp;amp; estadoCivil != 'viudo' &amp;amp;&amp;amp; estadoCivil != 'soltero' &amp;amp;&amp;amp; estadoCivil != 'soltero');&lt;/span&gt;&lt;/div&gt;&lt;/div&gt;" style="text;html=1;align=left;verticalAlign=middle;resizable=0;points=[];autosize=1;strokeColor=none;fillColor=none;fontSize=16;fontColor=#66FFFF;" parent="__sn3cBMmpdRBRPK4-8y-1" vertex="1">
                    <mxGeometry x="56" y="2183" width="1048" height="119" as="geometry"/>
                </mxCell>
                <mxCell id="7bWslu9p_hP42XerB_Ps-2" value="&lt;div style=&quot;color: rgb(212 , 212 , 212) ; background-color: rgb(30 , 30 , 30) ; font-family: &amp;#34;consolas&amp;#34; , &amp;#34;courier new&amp;#34; , monospace ; line-height: 32px&quot;&gt;&lt;br&gt;&lt;div&gt;&lt;span style=&quot;color: #c586c0&quot;&gt;do&lt;/span&gt; {&lt;/div&gt;&lt;div&gt;&amp;nbsp; &lt;span style=&quot;color: #9cdcfe&quot;&gt;sexo&lt;/span&gt; = &lt;span style=&quot;color: #dcdcaa&quot;&gt;prompt&lt;/span&gt;(&lt;span style=&quot;color: #ce9178&quot;&gt;'ingrese su sexo [m-f-nb]:'&lt;/span&gt;);&lt;/div&gt;&lt;div&gt;} &lt;span style=&quot;color: #c586c0&quot;&gt;while&lt;/span&gt;(&lt;span style=&quot;color: #9cdcfe&quot;&gt;sexo&lt;/span&gt; != &lt;span style=&quot;color: #ce9178&quot;&gt;'m'&lt;/span&gt; &amp;amp;&amp;amp; &lt;span style=&quot;color: #9cdcfe&quot;&gt;sexo&lt;/span&gt; != &lt;span style=&quot;color: #ce9178&quot;&gt;'f'&lt;/span&gt; &amp;amp;&amp;amp; &lt;span style=&quot;color: #9cdcfe&quot;&gt;sexo&lt;/span&gt;!= &lt;span style=&quot;color: #ce9178&quot;&gt;'nb'&lt;/span&gt;);&lt;/div&gt;&lt;div&gt;&lt;span style=&quot;color: #6a9955&quot;&gt;//While( !(sexo =='m' || sexo =='f' || sexo == 'nb') );&lt;/span&gt;&lt;/div&gt;&lt;/div&gt;&lt;span style=&quot;background-color: rgb(30 , 30 , 30) ; color: rgb(212 , 212 , 212) ; font-family: &amp;#34;consolas&amp;#34; , &amp;#34;courier new&amp;#34; , monospace&quot;&gt;&amp;nbsp; &amp;nbsp; &amp;nbsp; &amp;nbsp; &amp;nbsp; &amp;nbsp; &amp;nbsp; &amp;nbsp; &amp;nbsp; &amp;nbsp; &amp;nbsp; &amp;nbsp; &amp;nbsp; &amp;nbsp; &amp;nbsp; &amp;nbsp; &amp;nbsp; &amp;nbsp; &amp;nbsp; &amp;nbsp; &amp;nbsp; &amp;nbsp; &amp;nbsp; &amp;nbsp; &amp;nbsp; &amp;nbsp; &amp;nbsp; &amp;nbsp;&amp;nbsp;&lt;/span&gt;" style="text;html=1;align=left;verticalAlign=middle;resizable=0;points=[];autosize=1;strokeColor=none;fillColor=none;fontSize=16;fontColor=#66FFFF;" parent="__sn3cBMmpdRBRPK4-8y-1" vertex="1">
                    <mxGeometry x="518" y="1718" width="502" height="183" as="geometry"/>
                </mxCell>
                <mxCell id="7bWslu9p_hP42XerB_Ps-4" value="" style="endArrow=classic;html=1;fontSize=16;fontColor=#66FFFF;entryX=-0.003;entryY=0.451;entryDx=0;entryDy=0;entryPerimeter=0;" parent="__sn3cBMmpdRBRPK4-8y-1" target="7bWslu9p_hP42XerB_Ps-2" edge="1">
                    <mxGeometry width="50" height="50" relative="1" as="geometry">
                        <mxPoint x="214" y="1851" as="sourcePoint"/>
                        <mxPoint x="393" y="1918" as="targetPoint"/>
                    </mxGeometry>
                </mxCell>
                <mxCell id="7bWslu9p_hP42XerB_Ps-5" value="" style="endArrow=classic;html=1;fontSize=16;fontColor=#66FFFF;" parent="__sn3cBMmpdRBRPK4-8y-1" source="q-qqW4od3pI8SFq5pfu_-1" edge="1">
                    <mxGeometry width="50" height="50" relative="1" as="geometry">
                        <mxPoint x="127" y="2061" as="sourcePoint"/>
                        <mxPoint x="179" y="2176" as="targetPoint"/>
                    </mxGeometry>
                </mxCell>
                <mxCell id="7bWslu9p_hP42XerB_Ps-6" value="" style="endArrow=classic;html=1;fontSize=16;fontColor=#66FFFF;" parent="__sn3cBMmpdRBRPK4-8y-1" source="q-qqW4od3pI8SFq5pfu_-1" edge="1">
                    <mxGeometry width="50" height="50" relative="1" as="geometry">
                        <mxPoint x="343" y="2066" as="sourcePoint"/>
                        <mxPoint x="393" y="2016" as="targetPoint"/>
                    </mxGeometry>
                </mxCell>
                <mxCell id="l2jnEulsVZ3oGiuxGF0B-0" value="" style="group" vertex="1" connectable="0" parent="__sn3cBMmpdRBRPK4-8y-1">
                    <mxGeometry x="195" y="888" width="660" height="363" as="geometry"/>
                </mxCell>
                <mxCell id="vcfsVstc_lvA9KYxTBaH-0" value="&lt;div style=&quot;color: rgb(212 , 212 , 212) ; background-color: rgb(30 , 30 , 30) ; font-family: &amp;#34;consolas&amp;#34; , &amp;#34;courier new&amp;#34; , monospace ; line-height: 32px&quot;&gt;&lt;div&gt;&lt;span style=&quot;color: #c586c0&quot;&gt;do&lt;/span&gt; {&lt;/div&gt;&lt;div&gt;&amp;nbsp; &lt;span style=&quot;color: #9cdcfe&quot;&gt;Numero&lt;/span&gt; = &lt;span style=&quot;color: #dcdcaa&quot;&gt;prompt&lt;/span&gt;(&lt;span style=&quot;color: #ce9178&quot;&gt;'ingrese numero mayor o igual que 18 y menor &amp;nbsp;que 60:'&lt;/span&gt;);&lt;/div&gt;&lt;div&gt;&amp;nbsp; &lt;span style=&quot;color: #9cdcfe&quot;&gt;Numero&lt;/span&gt; = &lt;span style=&quot;color: #dcdcaa&quot;&gt;parseInt&lt;/span&gt;(&lt;span style=&quot;color: #9cdcfe&quot;&gt;Numero&lt;/span&gt;);&lt;/div&gt;&lt;div&gt;}&lt;span style=&quot;color: #c586c0&quot;&gt;while&lt;/span&gt;(&lt;span style=&quot;color: #9cdcfe&quot;&gt;numero&lt;/span&gt; &amp;lt; &lt;span style=&quot;color: #b5cea8&quot;&gt;18&lt;/span&gt; || &lt;span style=&quot;color: #9cdcfe&quot;&gt;numero&lt;/span&gt; &amp;gt;= &lt;span style=&quot;color: #b5cea8&quot;&gt;60&lt;/span&gt; ) &lt;span style=&quot;color: #6a9955&quot;&gt;// !(Numero &amp;gt;= 18 &amp;amp;&amp;amp; Numero &amp;lt; 60)&lt;/span&gt;&lt;/div&gt;&lt;/div&gt;" style="text;html=1;strokeColor=none;fillColor=none;align=left;verticalAlign=middle;whiteSpace=wrap;rounded=0;fontSize=16;fontColor=#F0F0F0;" parent="l2jnEulsVZ3oGiuxGF0B-0" vertex="1">
                    <mxGeometry y="62" width="660" height="130" as="geometry"/>
                </mxCell>
                <mxCell id="vcfsVstc_lvA9KYxTBaH-2" value="EJ: mayor o igual que 18 y menor que 60" style="text;html=1;align=center;verticalAlign=middle;resizable=0;points=[];autosize=1;strokeColor=none;fillColor=none;fontSize=16;fontColor=#F0F0F0;" parent="l2jnEulsVZ3oGiuxGF0B-0" vertex="1">
                    <mxGeometry x="4" y="34" width="310" height="20" as="geometry"/>
                </mxCell>
                <mxCell id="vcfsVstc_lvA9KYxTBaH-4" value="" style="endArrow=classic;html=1;labelBackgroundColor=none;fontSize=20;fontColor=#FFFF66;entryX=0.179;entryY=1.032;entryDx=0;entryDy=0;entryPerimeter=0;" parent="l2jnEulsVZ3oGiuxGF0B-0" target="vcfsVstc_lvA9KYxTBaH-0" edge="1">
                    <mxGeometry width="50" height="50" relative="1" as="geometry">
                        <mxPoint x="118" y="289" as="sourcePoint"/>
                        <mxPoint x="431" y="261" as="targetPoint"/>
                    </mxGeometry>
                </mxCell>
                <mxCell id="vcfsVstc_lvA9KYxTBaH-5" value="" style="endArrow=classic;html=1;labelBackgroundColor=none;fontSize=20;fontColor=#FFFF66;entryX=0.381;entryY=1;entryDx=0;entryDy=0;entryPerimeter=0;" parent="l2jnEulsVZ3oGiuxGF0B-0" target="vcfsVstc_lvA9KYxTBaH-0" edge="1">
                    <mxGeometry width="50" height="50" relative="1" as="geometry">
                        <mxPoint x="560" y="287" as="sourcePoint"/>
                        <mxPoint x="431" y="261" as="targetPoint"/>
                        <Array as="points">
                            <mxPoint x="560" y="238"/>
                            <mxPoint x="251" y="238"/>
                        </Array>
                    </mxGeometry>
                </mxCell>
                <mxCell id="vcfsVstc_lvA9KYxTBaH-6" value="" style="endArrow=classic;html=1;labelBackgroundColor=none;fontSize=20;fontColor=#FFFF66;entryX=0.609;entryY=1;entryDx=0;entryDy=0;entryPerimeter=0;" parent="l2jnEulsVZ3oGiuxGF0B-0" target="vcfsVstc_lvA9KYxTBaH-0" edge="1">
                    <mxGeometry width="50" height="50" relative="1" as="geometry">
                        <mxPoint x="402" y="289" as="sourcePoint"/>
                        <mxPoint x="431" y="261" as="targetPoint"/>
                    </mxGeometry>
                </mxCell>
                <mxCell id="AegxrRPMY47T-G4UvrQR-27" value="" style="shape=flexArrow;endArrow=classic;startArrow=classic;html=1;labelBackgroundColor=none;fontSize=16;fontColor=#FFFF66;fillColor=#60a917;strokeColor=#2D7600;" parent="l2jnEulsVZ3oGiuxGF0B-0" edge="1">
                    <mxGeometry width="100" height="100" relative="1" as="geometry">
                        <mxPoint x="264" y="292" as="sourcePoint"/>
                        <mxPoint x="479" y="292" as="targetPoint"/>
                    </mxGeometry>
                </mxCell>
                <mxCell id="AegxrRPMY47T-G4UvrQR-28" value="" style="shape=flexArrow;endArrow=classic;html=1;labelBackgroundColor=none;fontSize=16;fontColor=#FFFF66;fillColor=#a20025;strokeColor=#6F0000;" parent="l2jnEulsVZ3oGiuxGF0B-0" edge="1">
                    <mxGeometry width="50" height="50" relative="1" as="geometry">
                        <mxPoint x="264" y="292" as="sourcePoint"/>
                        <mxPoint x="37" y="292" as="targetPoint"/>
                    </mxGeometry>
                </mxCell>
                <mxCell id="AegxrRPMY47T-G4UvrQR-29" value="" style="shape=flexArrow;endArrow=classic;html=1;labelBackgroundColor=none;fontSize=16;fontColor=#FFFF66;fillColor=#a20025;strokeColor=#6F0000;" parent="l2jnEulsVZ3oGiuxGF0B-0" edge="1">
                    <mxGeometry width="50" height="50" relative="1" as="geometry">
                        <mxPoint x="494" y="292" as="sourcePoint"/>
                        <mxPoint x="637" y="292" as="targetPoint"/>
                    </mxGeometry>
                </mxCell>
                <mxCell id="AegxrRPMY47T-G4UvrQR-25" value=".....&amp;nbsp; &amp;nbsp;-1&amp;nbsp; &amp;nbsp;0&amp;nbsp; &amp;nbsp;1&amp;nbsp; &amp;nbsp;2&amp;nbsp; &amp;nbsp;3 ......&amp;nbsp; &amp;nbsp;17&amp;nbsp; &amp;nbsp;&lt;font color=&quot;#ffff66&quot;&gt;18&lt;/font&gt;&amp;nbsp; &amp;nbsp; 19&amp;nbsp; &amp;nbsp;20 ...............&amp;nbsp; 58&amp;nbsp; &amp;nbsp;&lt;font color=&quot;#ffff66&quot;&gt;59&lt;/font&gt;&amp;nbsp; &amp;nbsp;60&amp;nbsp; 61&amp;nbsp; 62 63 ........" style="text;html=1;align=center;verticalAlign=middle;resizable=0;points=[];autosize=1;strokeColor=none;fillColor=none;fontSize=16;fontColor=#FFFFFF;" parent="l2jnEulsVZ3oGiuxGF0B-0" vertex="1">
                    <mxGeometry x="48" y="317" width="584" height="23" as="geometry"/>
                </mxCell>
                <mxCell id="vcfsVstc_lvA9KYxTBaH-16" value="" style="endArrow=classic;startArrow=classic;html=1;labelBackgroundColor=none;fontSize=20;fontColor=#FFFF66;" parent="l2jnEulsVZ3oGiuxGF0B-0" edge="1">
                    <mxGeometry width="50" height="50" relative="1" as="geometry">
                        <mxPoint x="48" y="363" as="sourcePoint"/>
                        <mxPoint x="637" y="363" as="targetPoint"/>
                    </mxGeometry>
                </mxCell>
                <mxCell id="wIf0HYzDGaukZZHurEHg-0" value="" style="shape=flexArrow;endArrow=classic;html=1;labelBackgroundColor=none;fontSize=16;fontColor=#FFFF66;fillColor=#a20025;strokeColor=#6F0000;" parent="l2jnEulsVZ3oGiuxGF0B-0" edge="1">
                    <mxGeometry width="50" height="50" relative="1" as="geometry">
                        <mxPoint x="478" y="292" as="sourcePoint"/>
                        <mxPoint x="636" y="292" as="targetPoint"/>
                    </mxGeometry>
                </mxCell>
                <mxCell id="l2jnEulsVZ3oGiuxGF0B-2" value="&lt;div style=&quot;color: rgb(212 , 212 , 212) ; background-color: rgb(30 , 30 , 30) ; font-family: &amp;#34;consolas&amp;#34; , &amp;#34;courier new&amp;#34; , monospace ; line-height: 32px&quot;&gt;&lt;div&gt;&lt;span style=&quot;color: #c586c0&quot;&gt;do&lt;/span&gt; {&lt;/div&gt;&lt;div&gt;&amp;nbsp; &lt;span style=&quot;color: #9cdcfe&quot;&gt;Numero&lt;/span&gt; = &lt;span style=&quot;color: #dcdcaa&quot;&gt;prompt&lt;/span&gt;(&lt;span style=&quot;color: #ce9178&quot;&gt;'ingrese numero menor 18 o mayor que 60:'&lt;/span&gt;);&lt;/div&gt;&lt;div&gt;&amp;nbsp; &lt;span style=&quot;color: #9cdcfe&quot;&gt;Numero&lt;/span&gt; = &lt;span style=&quot;color: #dcdcaa&quot;&gt;parseInt&lt;/span&gt;(&lt;span style=&quot;color: #9cdcfe&quot;&gt;Numero&lt;/span&gt;);&lt;/div&gt;&lt;div&gt;}&lt;span style=&quot;color: #c586c0&quot;&gt;while&lt;/span&gt;(&lt;span style=&quot;color: #9cdcfe&quot;&gt;numero&lt;/span&gt;&amp;nbsp;&amp;gt;=&amp;nbsp;&lt;span style=&quot;color: #b5cea8&quot;&gt;18&lt;/span&gt; &amp;amp;&amp;amp;&amp;nbsp;&lt;span style=&quot;color: #9cdcfe&quot;&gt;numero&lt;/span&gt; &amp;lt;= &lt;span style=&quot;color: #b5cea8&quot;&gt;60&lt;/span&gt; ) &lt;span style=&quot;color: #6a9955&quot;&gt;// !(Numero &amp;lt; 18 || Numero &amp;gt; 60)&lt;/span&gt;&lt;/div&gt;&lt;/div&gt;" style="text;html=1;strokeColor=none;fillColor=none;align=left;verticalAlign=middle;whiteSpace=wrap;rounded=0;fontSize=16;fontColor=#F0F0F0;" vertex="1" parent="__sn3cBMmpdRBRPK4-8y-1">
                    <mxGeometry x="195" y="1342" width="660" height="130" as="geometry"/>
                </mxCell>
                <mxCell id="l2jnEulsVZ3oGiuxGF0B-3" value="EJ: menor que 18&amp;nbsp; o&amp;nbsp; mayor que 60" style="text;html=1;align=center;verticalAlign=middle;resizable=0;points=[];autosize=1;strokeColor=none;fillColor=none;fontSize=16;fontColor=#F0F0F0;" vertex="1" parent="__sn3cBMmpdRBRPK4-8y-1">
                    <mxGeometry x="191" y="1312" width="261" height="23" as="geometry"/>
                </mxCell>
                <mxCell id="l2jnEulsVZ3oGiuxGF0B-4" value="" style="endArrow=classic;html=1;labelBackgroundColor=none;fontSize=20;fontColor=#FFFF66;entryX=0.66;entryY=1.023;entryDx=0;entryDy=0;entryPerimeter=0;" edge="1" parent="__sn3cBMmpdRBRPK4-8y-1" target="l2jnEulsVZ3oGiuxGF0B-2">
                    <mxGeometry width="50" height="50" relative="1" as="geometry">
                        <mxPoint x="313" y="1569" as="sourcePoint"/>
                        <mxPoint x="626" y="1541" as="targetPoint"/>
                        <Array as="points">
                            <mxPoint x="313" y="1541"/>
                            <mxPoint x="631" y="1541"/>
                        </Array>
                    </mxGeometry>
                </mxCell>
                <mxCell id="l2jnEulsVZ3oGiuxGF0B-5" value="" style="endArrow=classic;html=1;labelBackgroundColor=none;fontSize=20;fontColor=#FFFF66;entryX=0.847;entryY=0.998;entryDx=0;entryDy=0;entryPerimeter=0;" edge="1" parent="__sn3cBMmpdRBRPK4-8y-1" target="l2jnEulsVZ3oGiuxGF0B-2">
                    <mxGeometry width="50" height="50" relative="1" as="geometry">
                        <mxPoint x="755" y="1567" as="sourcePoint"/>
                        <mxPoint x="626" y="1541" as="targetPoint"/>
                        <Array as="points">
                            <mxPoint x="755" y="1518"/>
                        </Array>
                    </mxGeometry>
                </mxCell>
                <mxCell id="l2jnEulsVZ3oGiuxGF0B-6" value="" style="endArrow=classic;html=1;labelBackgroundColor=none;fontSize=20;fontColor=#FFFF66;entryX=0.283;entryY=1.01;entryDx=0;entryDy=0;entryPerimeter=0;" edge="1" parent="__sn3cBMmpdRBRPK4-8y-1" target="l2jnEulsVZ3oGiuxGF0B-2">
                    <mxGeometry width="50" height="50" relative="1" as="geometry">
                        <mxPoint x="597" y="1569" as="sourcePoint"/>
                        <mxPoint x="626" y="1541" as="targetPoint"/>
                        <Array as="points">
                            <mxPoint x="597" y="1528"/>
                            <mxPoint x="382" y="1528"/>
                        </Array>
                    </mxGeometry>
                </mxCell>
                <mxCell id="l2jnEulsVZ3oGiuxGF0B-7" value="" style="shape=flexArrow;endArrow=classic;startArrow=classic;html=1;labelBackgroundColor=none;fontSize=16;fontColor=#FFFF66;fillColor=#a20025;strokeColor=#6F0000;" edge="1" parent="__sn3cBMmpdRBRPK4-8y-1">
                    <mxGeometry width="100" height="100" relative="1" as="geometry">
                        <mxPoint x="459" y="1572" as="sourcePoint"/>
                        <mxPoint x="674" y="1572" as="targetPoint"/>
                    </mxGeometry>
                </mxCell>
                <mxCell id="l2jnEulsVZ3oGiuxGF0B-8" value="" style="shape=flexArrow;endArrow=classic;html=1;labelBackgroundColor=none;fontSize=16;fontColor=#00FF00;fillColor=#60a917;strokeColor=#2D7600;" edge="1" parent="__sn3cBMmpdRBRPK4-8y-1">
                    <mxGeometry width="50" height="50" relative="1" as="geometry">
                        <mxPoint x="459" y="1572" as="sourcePoint"/>
                        <mxPoint x="232" y="1572" as="targetPoint"/>
                    </mxGeometry>
                </mxCell>
                <mxCell id="l2jnEulsVZ3oGiuxGF0B-9" value="" style="shape=flexArrow;endArrow=classic;html=1;labelBackgroundColor=none;fontSize=16;fontColor=#FFFF66;fillColor=#a20025;strokeColor=#6F0000;" edge="1" parent="__sn3cBMmpdRBRPK4-8y-1">
                    <mxGeometry width="50" height="50" relative="1" as="geometry">
                        <mxPoint x="689" y="1572" as="sourcePoint"/>
                        <mxPoint x="832" y="1572" as="targetPoint"/>
                    </mxGeometry>
                </mxCell>
                <mxCell id="l2jnEulsVZ3oGiuxGF0B-10" value=".....&amp;nbsp; &amp;nbsp;-1&amp;nbsp; &amp;nbsp;0&amp;nbsp; &amp;nbsp;1&amp;nbsp; &amp;nbsp;2&amp;nbsp; &amp;nbsp;3 ......&amp;nbsp; &amp;nbsp;17&amp;nbsp; &amp;nbsp;&lt;font color=&quot;#ffff66&quot;&gt;18&lt;/font&gt;&amp;nbsp; &amp;nbsp; 19&amp;nbsp; &amp;nbsp;20 ...............&amp;nbsp; 58&amp;nbsp; &amp;nbsp;&lt;font color=&quot;#ffff66&quot;&gt;59&lt;/font&gt;&amp;nbsp; &amp;nbsp;60&amp;nbsp; 61&amp;nbsp; 62 63 ........" style="text;html=1;align=center;verticalAlign=middle;resizable=0;points=[];autosize=1;strokeColor=none;fillColor=none;fontSize=16;fontColor=#FFFFFF;" vertex="1" parent="__sn3cBMmpdRBRPK4-8y-1">
                    <mxGeometry x="243" y="1597" width="584" height="23" as="geometry"/>
                </mxCell>
                <mxCell id="l2jnEulsVZ3oGiuxGF0B-11" value="" style="endArrow=classic;startArrow=classic;html=1;labelBackgroundColor=none;fontSize=20;fontColor=#FFFF66;" edge="1" parent="__sn3cBMmpdRBRPK4-8y-1">
                    <mxGeometry width="50" height="50" relative="1" as="geometry">
                        <mxPoint x="243" y="1643" as="sourcePoint"/>
                        <mxPoint x="832" y="1643" as="targetPoint"/>
                    </mxGeometry>
                </mxCell>
                <mxCell id="l2jnEulsVZ3oGiuxGF0B-12" value="" style="shape=flexArrow;endArrow=classic;html=1;labelBackgroundColor=none;fontSize=16;fontColor=#FFFF66;fillColor=#60a917;strokeColor=#2D7600;" edge="1" parent="__sn3cBMmpdRBRPK4-8y-1">
                    <mxGeometry width="50" height="50" relative="1" as="geometry">
                        <mxPoint x="673" y="1572" as="sourcePoint"/>
                        <mxPoint x="831" y="1572" as="targetPoint"/>
                    </mxGeometry>
                </mxCell>
            </root>
        </mxGraphModel>
    </diagram>
    <diagram id="7MGQcCIdDvxg1HdLNUGJ" name="MayorMenor">
        <mxGraphModel dx="1266" dy="1436" grid="1" gridSize="10" guides="1" tooltips="1" connect="1" arrows="1" fold="1" page="1" pageScale="1" pageWidth="1169" pageHeight="827" math="0" shadow="0">
            <root>
                <mxCell id="Ab-UcgDIh5JYa8GGSbn1-0"/>
                <mxCell id="Ab-UcgDIh5JYa8GGSbn1-1" style="locked=1;" parent="Ab-UcgDIh5JYa8GGSbn1-0"/>
                <mxCell id="Ab-UcgDIh5JYa8GGSbn1-2" value="&amp;nbsp;&amp;nbsp;&lt;span style=&quot;color: rgb(106 , 153 , 85) ; background-color: rgb(30 , 30 , 30) ; font-family: &amp;#34;consolas&amp;#34; , &amp;#34;courier new&amp;#34; , monospace ; font-size: 16px&quot;&gt;// este valor depende del problema&amp;nbsp; &amp;nbsp; &amp;nbsp; &amp;nbsp;&lt;/span&gt;&lt;div style=&quot;color: rgb(212 , 212 , 212) ; background-color: rgb(30 , 30 , 30) ; font-family: &amp;#34;consolas&amp;#34; , &amp;#34;courier new&amp;#34; , monospace ; font-size: 16px ; line-height: 32px&quot;&gt;&lt;div&gt;&lt;span style=&quot;color: #569cd6&quot;&gt;const&lt;/span&gt; &lt;span style=&quot;color: #4fc1ff&quot;&gt;MENOR_DATO_POSIBLE&lt;/span&gt; = &lt;span style=&quot;color: #b5cea8&quot;&gt;0&lt;/span&gt;;&lt;/div&gt;&lt;div&gt;&lt;span style=&quot;color: #569cd6&quot;&gt;var&lt;/span&gt; &lt;span style=&quot;color: #9cdcfe&quot;&gt;mayorBuscado&lt;/span&gt; = &lt;span style=&quot;color: #4fc1ff&quot;&gt;MENOR_DATO_POSIBLE&lt;/span&gt;;&lt;/div&gt;&lt;div&gt;&lt;span style=&quot;color: #c586c0&quot;&gt;if&lt;/span&gt;( &lt;span style=&quot;color: #9cdcfe&quot;&gt;mayorBuscado&lt;/span&gt; &amp;lt; &lt;span style=&quot;color: #9cdcfe&quot;&gt;datoIngresadoUsuario&lt;/span&gt;)&lt;/div&gt;&lt;div&gt;{&lt;/div&gt;&lt;div&gt;&amp;nbsp; &lt;span style=&quot;color: #9cdcfe&quot;&gt;mayorBuscado&lt;/span&gt; = &lt;span style=&quot;color: #9cdcfe&quot;&gt;datoIngresadoUsuario&lt;/span&gt;;&lt;/div&gt;&lt;div&gt;}&lt;/div&gt;&lt;br&gt;&lt;div&gt;&lt;span style=&quot;color: #6a9955&quot;&gt;// este valor depende del problema&lt;/span&gt;&lt;/div&gt;&lt;div&gt;&lt;span style=&quot;color: #569cd6&quot;&gt;const&lt;/span&gt; &lt;span style=&quot;color: #4fc1ff&quot;&gt;MAYOR_DATO_POSIBLE&lt;/span&gt; = &lt;span style=&quot;color: #b5cea8&quot;&gt;1000000&lt;/span&gt;;&lt;/div&gt;&lt;div&gt;&lt;span style=&quot;color: #569cd6&quot;&gt;var&lt;/span&gt; &lt;span style=&quot;color: #9cdcfe&quot;&gt;menorBuscado&lt;/span&gt; = &lt;span style=&quot;color: #4fc1ff&quot;&gt;MAYOR_DATO_POSIBLE&lt;/span&gt;;&lt;/div&gt;&lt;div&gt;&lt;span style=&quot;color: #c586c0&quot;&gt;if&lt;/span&gt;( &lt;span style=&quot;color: #9cdcfe&quot;&gt;menorBuscado&lt;/span&gt; &amp;gt; &lt;span style=&quot;color: #9cdcfe&quot;&gt;datoIngresadoUsuario&lt;/span&gt;)&lt;/div&gt;&lt;div&gt;{&lt;/div&gt;&lt;div&gt;&amp;nbsp; &lt;span style=&quot;color: #9cdcfe&quot;&gt;menorBuscado&lt;/span&gt; = &lt;span style=&quot;color: #9cdcfe&quot;&gt;datoIngresadoUsuario&lt;/span&gt;;&lt;/div&gt;&lt;div&gt;}&lt;/div&gt;&lt;/div&gt;" style="text;html=1;align=left;verticalAlign=middle;resizable=0;points=[];autosize=1;strokeColor=none;fillColor=none;" parent="Ab-UcgDIh5JYa8GGSbn1-1" vertex="1">
                    <mxGeometry x="30" y="-540" width="380" height="470" as="geometry"/>
                </mxCell>
                <mxCell id="Ab-UcgDIh5JYa8GGSbn1-8" value="" style="edgeStyle=none;html=1;exitX=0.25;exitY=1;exitDx=0;exitDy=0;" parent="Ab-UcgDIh5JYa8GGSbn1-1" source="Ab-UcgDIh5JYa8GGSbn1-4" target="Ab-UcgDIh5JYa8GGSbn1-2" edge="1">
                    <mxGeometry relative="1" as="geometry"/>
                </mxCell>
                <mxCell id="Ab-UcgDIh5JYa8GGSbn1-4" value="&lt;h1&gt;&lt;span&gt;Busqueda Mayor/menor&lt;/span&gt;&lt;/h1&gt;&lt;h1 style=&quot;font-size: 17px&quot;&gt;&lt;span style=&quot;font-weight: 400&quot;&gt;&lt;font style=&quot;font-size: 17px&quot;&gt;1 con uso de banderas&lt;/font&gt;&lt;/span&gt;&lt;/h1&gt;&lt;div style=&quot;font-size: 17px&quot;&gt;&lt;span style=&quot;font-weight: 400&quot;&gt;&lt;font style=&quot;font-size: 17px&quot;&gt;2 sin uso de banderas&lt;/font&gt;&lt;/span&gt;&lt;/div&gt;" style="text;html=1;strokeColor=none;fillColor=none;spacing=5;spacingTop=-20;whiteSpace=wrap;overflow=hidden;rounded=0;" parent="Ab-UcgDIh5JYa8GGSbn1-1" vertex="1">
                    <mxGeometry x="30" y="-740" width="360" height="120" as="geometry"/>
                </mxCell>
                <mxCell id="Ab-UcgDIh5JYa8GGSbn1-5" value="&lt;span style=&quot;background-color: rgb(30 , 30 , 30) ; font-family: &amp;#34;consolas&amp;#34; , &amp;#34;courier new&amp;#34; , monospace ; font-size: 16px ; color: rgb(86 , 156 , 214)&quot;&gt;var&lt;/span&gt;&lt;span style=&quot;background-color: rgb(30 , 30 , 30) ; color: rgb(212 , 212 , 212) ; font-family: &amp;#34;consolas&amp;#34; , &amp;#34;courier new&amp;#34; , monospace ; font-size: 16px&quot;&gt; &lt;/span&gt;&lt;span style=&quot;background-color: rgb(30 , 30 , 30) ; font-family: &amp;#34;consolas&amp;#34; , &amp;#34;courier new&amp;#34; , monospace ; font-size: 16px ; color: rgb(156 , 220 , 254)&quot;&gt;mayorBuscado&lt;/span&gt;&lt;span style=&quot;background-color: rgb(30 , 30 , 30) ; color: rgb(212 , 212 , 212) ; font-family: &amp;#34;consolas&amp;#34; , &amp;#34;courier new&amp;#34; , monospace ; font-size: 16px&quot;&gt;;&amp;nbsp; &amp;nbsp; &amp;nbsp; &amp;nbsp; &amp;nbsp; &amp;nbsp; &amp;nbsp; &amp;nbsp; &amp;nbsp; &amp;nbsp; &amp;nbsp; &amp;nbsp; &amp;nbsp; &amp;nbsp; &amp;nbsp; &amp;nbsp; &amp;nbsp; &amp;nbsp; &amp;nbsp;&amp;nbsp;&lt;/span&gt;&lt;div style=&quot;color: rgb(212 , 212 , 212) ; background-color: rgb(30 , 30 , 30) ; font-family: &amp;#34;consolas&amp;#34; , &amp;#34;courier new&amp;#34; , monospace ; font-size: 16px ; line-height: 32px&quot;&gt;&lt;div&gt;&lt;span style=&quot;color: #569cd6&quot;&gt;var&lt;/span&gt; &lt;span style=&quot;color: #9cdcfe&quot;&gt;menorBuscado&lt;/span&gt;;&lt;/div&gt;&lt;div&gt;&lt;span style=&quot;color: #569cd6&quot;&gt;var&lt;/span&gt; &lt;span style=&quot;color: #9cdcfe&quot;&gt;datoIngresadoUsuario&lt;/span&gt;;&lt;/div&gt;&lt;div&gt;&lt;span style=&quot;color: #569cd6&quot;&gt;var&lt;/span&gt; &lt;span style=&quot;color: #9cdcfe&quot;&gt;banderaMayor&lt;/span&gt; = &lt;span style=&quot;color: #569cd6&quot;&gt;true&lt;/span&gt;;&lt;/div&gt;&lt;div&gt;&lt;span style=&quot;color: #569cd6&quot;&gt;var&lt;/span&gt; &lt;span style=&quot;color: #9cdcfe&quot;&gt;banderaMenor&lt;/span&gt; = &lt;span style=&quot;color: #569cd6&quot;&gt;true&lt;/span&gt;;&lt;/div&gt;&lt;div&gt;&lt;br&gt;&lt;/div&gt;&lt;div&gt;&lt;span style=&quot;color: #c586c0&quot;&gt;if&lt;/span&gt;(&lt;span style=&quot;color: #9cdcfe&quot;&gt;banderaMayor&lt;/span&gt; || &lt;span style=&quot;color: #9cdcfe&quot;&gt;mayorBuscado&lt;/span&gt; &amp;lt; &lt;span style=&quot;color: #9cdcfe&quot;&gt;datoIngresadoUsuario&lt;/span&gt;)&lt;/div&gt;&lt;div&gt;{&lt;/div&gt;&lt;div&gt;&amp;nbsp; &lt;span style=&quot;color: #9cdcfe&quot;&gt;banderaMayor&lt;/span&gt; = &lt;span style=&quot;color: #569cd6&quot;&gt;false&lt;/span&gt;;&lt;/div&gt;&lt;div&gt;&amp;nbsp; &lt;span style=&quot;color: #9cdcfe&quot;&gt;mayorBuscado&lt;/span&gt; = &lt;span style=&quot;color: #9cdcfe&quot;&gt;datoIngresadoUsuario&lt;/span&gt;;&lt;/div&gt;&lt;div&gt;}&lt;/div&gt;&lt;div&gt;&lt;br&gt;&lt;/div&gt;&lt;div&gt;&lt;span style=&quot;color: #c586c0&quot;&gt;if&lt;/span&gt;(&lt;span style=&quot;color: #9cdcfe&quot;&gt;banderaMenor&lt;/span&gt; || &lt;span style=&quot;color: #9cdcfe&quot;&gt;menorBuscado&lt;/span&gt; &amp;gt; &lt;span style=&quot;color: #9cdcfe&quot;&gt;datoIngresadoUsuario&lt;/span&gt;)&lt;/div&gt;&lt;div&gt;{&lt;/div&gt;&lt;div&gt;&amp;nbsp; &lt;span style=&quot;color: #9cdcfe&quot;&gt;banderaMenor&lt;/span&gt; = &lt;span style=&quot;color: #569cd6&quot;&gt;false&lt;/span&gt;;&lt;/div&gt;&lt;div&gt;&amp;nbsp; &lt;span style=&quot;color: #9cdcfe&quot;&gt;menorBuscado&lt;/span&gt; = &lt;span style=&quot;color: #9cdcfe&quot;&gt;datoIngresadoUsuario&lt;/span&gt;;&lt;/div&gt;&lt;div&gt;}&lt;/div&gt;&lt;br&gt;&lt;/div&gt;" style="text;html=1;strokeColor=none;fillColor=none;align=left;verticalAlign=middle;whiteSpace=wrap;rounded=0;" parent="Ab-UcgDIh5JYa8GGSbn1-1" vertex="1">
                    <mxGeometry x="470" y="-630" width="490" height="560" as="geometry"/>
                </mxCell>
                <mxCell id="Ab-UcgDIh5JYa8GGSbn1-7" value="" style="endArrow=classic;html=1;entryX=-0.005;entryY=0.166;entryDx=0;entryDy=0;entryPerimeter=0;exitX=0.417;exitY=0.583;exitDx=0;exitDy=0;exitPerimeter=0;" parent="Ab-UcgDIh5JYa8GGSbn1-1" source="Ab-UcgDIh5JYa8GGSbn1-4" target="Ab-UcgDIh5JYa8GGSbn1-5" edge="1">
                    <mxGeometry width="50" height="50" relative="1" as="geometry">
                        <mxPoint x="290" y="-560" as="sourcePoint"/>
                        <mxPoint x="340" y="-610" as="targetPoint"/>
                    </mxGeometry>
                </mxCell>
                <mxCell id="HD_h--K35GVe9T5Ti5m3-0" value="La estrategia:&lt;br&gt;&lt;div style=&quot;text-align: left&quot;&gt;&lt;span&gt;Se guarda el primer valor en una variable como menor o mayor, depende de lo que se busque.&lt;/span&gt;&lt;/div&gt;&lt;div style=&quot;text-align: left&quot;&gt;&lt;span&gt;Luego se compara con el dato siguente, y de ser necesario se actualiza el valor de la variable&lt;/span&gt;&lt;/div&gt;" style="text;html=1;align=center;verticalAlign=middle;resizable=0;points=[];autosize=1;strokeColor=none;fillColor=none;fontSize=17;fontColor=#00FF00;" vertex="1" parent="Ab-UcgDIh5JYa8GGSbn1-1">
                    <mxGeometry x="350" y="-740" width="730" height="70" as="geometry"/>
                </mxCell>
            </root>
        </mxGraphModel>
    </diagram>
    <diagram id="-LQ68o-5fPGrrKMJ5wiR" name="Promedios">
        <mxGraphModel dx="1889" dy="1116" grid="0" gridSize="10" guides="1" tooltips="1" connect="1" arrows="1" fold="1" page="0" pageScale="1" pageWidth="1169" pageHeight="827" math="0" shadow="0">
            <root>
                <mxCell id="G63izwhB5szhWlNwitM2-0"/>
                <mxCell id="G63izwhB5szhWlNwitM2-1" style="locked=1;" parent="G63izwhB5szhWlNwitM2-0"/>
                <mxCell id="G63izwhB5szhWlNwitM2-4" value="&lt;h1&gt;&amp;nbsp; &amp;nbsp; &amp;nbsp; &amp;nbsp; &amp;nbsp; &amp;nbsp; &amp;nbsp; &amp;nbsp; &amp;nbsp; &amp;nbsp; &amp;nbsp; &amp;nbsp; &amp;nbsp; &amp;nbsp; &amp;nbsp; Promedio&amp;nbsp;&lt;/h1&gt;&lt;p style=&quot;font-size: 19px&quot;&gt;&lt;font style=&quot;font-size: 19px&quot;&gt;El promedio es el cociente entre&amp;nbsp; un&amp;nbsp; acumulador y un contador.&lt;/font&gt;&lt;/p&gt;&lt;p style=&quot;font-size: 19px&quot;&gt;&lt;font style=&quot;font-size: 19px&quot;&gt;El &lt;b&gt;&lt;font color=&quot;#66ffff&quot; style=&quot;font-size: 19px&quot;&gt;acumulador&lt;/font&gt;&lt;/b&gt;&amp;nbsp;se debe inicializar en cero y sumara todas las cantidades&amp;nbsp; aportadas por los&amp;nbsp; distintos participantes del promedio&lt;/font&gt;&lt;/p&gt;&lt;p style=&quot;font-size: 19px&quot;&gt;&lt;font style=&quot;font-size: 19px&quot;&gt;El &lt;b&gt;&lt;font color=&quot;#66ffff&quot; style=&quot;font-size: 19px&quot;&gt;Contador&lt;/font&gt; &lt;/b&gt;contara cuantos participantes aportaron al acumulador. E&lt;/font&gt;&lt;span&gt;ste se iniciara en cero y por esto nunca sera negativo&amp;nbsp;&lt;/span&gt;&lt;/p&gt;&lt;p style=&quot;font-size: 19px&quot;&gt;&lt;font style=&quot;font-size: 19px&quot;&gt;&lt;br&gt;&lt;/font&gt;&lt;/p&gt;&lt;p style=&quot;font-size: 19px&quot;&gt;&lt;font style=&quot;font-size: 19px&quot;&gt;¡ IMPORTANTE&amp;nbsp; verificar que el contador sea distinto de cero&amp;nbsp;&lt;/font&gt;&lt;/p&gt;&lt;p style=&quot;font-size: 19px&quot;&gt;&lt;font style=&quot;font-size: 19px&quot;&gt;&amp;nbsp; &amp;nbsp; &amp;nbsp; &amp;nbsp; &amp;nbsp; &amp;nbsp; &amp;nbsp; &amp;nbsp; &amp;nbsp; &amp;nbsp; &amp;nbsp;no se puede dividir por cero !&lt;/font&gt;&lt;/p&gt;" style="text;html=1;strokeColor=none;fillColor=none;spacing=5;spacingTop=-20;whiteSpace=wrap;overflow=hidden;rounded=0;fontSize=13;" parent="G63izwhB5szhWlNwitM2-1" vertex="1">
                    <mxGeometry x="-251" y="-107" width="560" height="409" as="geometry"/>
                </mxCell>
                <mxCell id="-Gn759IIxamwaKl_nB9M-0" value="&lt;div style=&quot;color: rgb(212 , 212 , 212) ; background-color: rgb(30 , 30 , 30) ; font-family: &amp;#34;consolas&amp;#34; , &amp;#34;courier new&amp;#34; , monospace ; line-height: 32px ; font-size: 19px&quot;&gt;// IMPORTANTE contador !=0&lt;br&gt;&lt;div&gt;&lt;span style=&quot;color: #c586c0&quot;&gt;if&lt;/span&gt;( &lt;span style=&quot;color: #9cdcfe&quot;&gt;contodor&lt;/span&gt;&amp;gt;&lt;span style=&quot;color: #b5cea8&quot;&gt;0&lt;/span&gt; ){&lt;/div&gt;&lt;div&gt;&amp;nbsp; &lt;span style=&quot;color: #9cdcfe&quot;&gt;promedio&lt;/span&gt; = &lt;span style=&quot;color: #9cdcfe&quot;&gt;acumulador&lt;/span&gt;/&lt;span style=&quot;color: #9cdcfe&quot;&gt;contador&lt;/span&gt;;&lt;/div&gt;&lt;div&gt;}&lt;/div&gt;&lt;div&gt;&lt;span style=&quot;color: #6a9955&quot;&gt;// promedio puede tomar un valor decimal&amp;nbsp;&amp;nbsp;&lt;/span&gt;&lt;/div&gt;&lt;div&gt;&amp;nbsp;&lt;/div&gt;&lt;/div&gt;" style="text;html=1;strokeColor=none;fillColor=none;align=left;verticalAlign=middle;whiteSpace=wrap;rounded=0;fontSize=16;fontColor=#66FFFF;" parent="G63izwhB5szhWlNwitM2-1" vertex="1">
                    <mxGeometry x="-199" y="364" width="370" height="210" as="geometry"/>
                </mxCell>
                <mxCell id="-Gn759IIxamwaKl_nB9M-1" value="" style="endArrow=none;html=1;fontSize=16;fontColor=#66FFFF;" parent="G63izwhB5szhWlNwitM2-1" edge="1">
                    <mxGeometry width="50" height="50" relative="1" as="geometry">
                        <mxPoint x="337" y="90" as="sourcePoint"/>
                        <mxPoint x="337" y="3" as="targetPoint"/>
                    </mxGeometry>
                </mxCell>
                <mxCell id="-Gn759IIxamwaKl_nB9M-3" value="&lt;font style=&quot;font-size: 18px&quot;&gt;La logica para el acumulador y el conador&lt;br&gt;estara dentro&amp;nbsp; del ciclo de entrada de datos&lt;br&gt;&lt;br&gt;&amp;nbsp;&lt;/font&gt;" style="text;html=1;strokeColor=none;fillColor=none;align=center;verticalAlign=middle;whiteSpace=wrap;rounded=0;fontSize=16;fontColor=#66FFFF;" parent="G63izwhB5szhWlNwitM2-1" vertex="1">
                    <mxGeometry x="365" y="115" width="377" height="116" as="geometry"/>
                </mxCell>
                <mxCell id="-Gn759IIxamwaKl_nB9M-4" value="&lt;span style=&quot;font-size: 18px&quot;&gt;La logica para el promedio estara&lt;/span&gt;&lt;br style=&quot;font-size: 18px&quot;&gt;&lt;span style=&quot;font-size: 18px&quot;&gt;&amp;nbsp;fuera de el ciclo de entrada de datos&lt;/span&gt;" style="text;html=1;strokeColor=none;fillColor=none;align=center;verticalAlign=middle;whiteSpace=wrap;rounded=0;fontSize=19;fontColor=#66FFFF;" parent="G63izwhB5szhWlNwitM2-1" vertex="1">
                    <mxGeometry x="371" y="424.5" width="320" height="89" as="geometry"/>
                </mxCell>
                <mxCell id="-Gn759IIxamwaKl_nB9M-5" value="" style="endArrow=classic;html=1;fontSize=19;fontColor=#66FFFF;entryX=0;entryY=0.5;entryDx=0;entryDy=0;exitX=1;exitY=0.5;exitDx=0;exitDy=0;" parent="G63izwhB5szhWlNwitM2-1" source="-Gn759IIxamwaKl_nB9M-0" target="-Gn759IIxamwaKl_nB9M-4" edge="1">
                    <mxGeometry width="50" height="50" relative="1" as="geometry">
                        <mxPoint x="195" y="153" as="sourcePoint"/>
                        <mxPoint x="245" y="103" as="targetPoint"/>
                    </mxGeometry>
                </mxCell>
                <mxCell id="-Gn759IIxamwaKl_nB9M-6" value="" style="endArrow=classic;html=1;fontSize=19;fontColor=#66FFFF;" parent="G63izwhB5szhWlNwitM2-1" target="-Gn759IIxamwaKl_nB9M-3" edge="1">
                    <mxGeometry width="50" height="50" relative="1" as="geometry">
                        <mxPoint x="340" y="39" as="sourcePoint"/>
                        <mxPoint x="230" y="17" as="targetPoint"/>
                    </mxGeometry>
                </mxCell>
            </root>
        </mxGraphModel>
    </diagram>
    <diagram id="ifq8mOluOR-lbBr2XuyP" name="Logica ">
        <mxGraphModel dx="1266" dy="609" grid="1" gridSize="10" guides="1" tooltips="1" connect="1" arrows="1" fold="1" page="0" pageScale="1" pageWidth="1169" pageHeight="827" math="0" shadow="0">
            <root>
                <mxCell id="7PIHjwcQeGxQg-K653tJ-0"/>
                <mxCell id="7PIHjwcQeGxQg-K653tJ-1" parent="7PIHjwcQeGxQg-K653tJ-0"/>
            </root>
        </mxGraphModel>
    </diagram>
    <diagram id="8TFWk6lO_YseMbhdAsVM" name="Estrategia de analisis">
        <mxGraphModel dx="1266" dy="609" grid="1" gridSize="10" guides="1" tooltips="1" connect="1" arrows="1" fold="1" page="0" pageScale="1" pageWidth="1169" pageHeight="827" math="0" shadow="0">
            <root>
                <mxCell id="26K1isPcCE51GHOF16f9-0"/>
                <mxCell id="26K1isPcCE51GHOF16f9-1" parent="26K1isPcCE51GHOF16f9-0"/>
            </root>
        </mxGraphModel>
    </diagram>
    <diagram id="M3RDI5fQ1nosjybzwTn7" name="Estretegias optimisado">
        <mxGraphModel dx="1044" dy="609" grid="1" gridSize="10" guides="1" tooltips="1" connect="1" arrows="1" fold="1" page="0" pageScale="1" pageWidth="1169" pageHeight="827" math="0" shadow="0">
            <root>
                <mxCell id="_xTRlONGhoETb1Wd7puJ-0"/>
                <mxCell id="_xTRlONGhoETb1Wd7puJ-1" parent="_xTRlONGhoETb1Wd7puJ-0"/>
            </root>
        </mxGraphModel>
    </diagram>
</mxfile>